<?xml version="1.0" standalone="no"?>
  <!DOCTYPE svg PUBLIC "-//W3C//DTD SVG 1.1//EN" "http://www.w3.org/Graphics/SVG/1.1/DTD/svg11.dtd" >
  <svg>
  <metadata>
  Created by font-carrier
  </metadata>
  <defs>
  <font id="EE-BellflowerRUSBYLYAJKA" horiz-adv-x="2221" vert-adv-y="2221" >
    <font-face
      
      font-family="EE-Bellflower(RUS BY LYAJKA)"
      
      font-weight="400"
      
      font-stretch="normal"
      
      units-per-em="2048"
      
      ascent="1716"
      
      descent="-418"
      
    />
      <missing-glyph />

      

      
      <glyph glyph-name="uni21" unicode="&#x21;" d="M263 548Q263 541 262 412Q261 313 258 280Q248 301 240 343Q231 387 222 407L222 300Q209 320 209 321Q202 350 174 472Q172 480 163 520Q160 509 158 471Q158 463 157 448Q157 433 157 426Q157 424 155 384Q155 394 152 334Q147 342 133 409Q135 399 122 481Q114 526 106 554Q100 532 98 462Q97 401 91 370Q84 386 84 387Q70 468 65 503Q46 625 41 673Q33 755 27 852Q24 909 20 1009Q15 1119 13 1166Q11 1205 7 1264Q1 1348 0 1362Q-1 1380 1 1390Q2 1399 10 1403Q21 1408 28 1398Q29 1397 40 1380Q43 1409 44 1411Q49 1433 65 1430Q81 1429 84 1413Q85 1409 94 1364Q99 1368 103 1392Q106 1408 110 1411Q114 1414 134 1416Q143 1443 145 1447Q148 1453 159 1454Q166 1454 169 1446Q172 1436 172 1422Q173 1406 173 1375Q174 1344 175 1329Q175 1306 183 1292Q186 1315 186 1316Q188 1346 188 1343Q192 1372 195 1380Q199 1391 213 1394Q228 1398 230 1381Q231 1371 240 1356Q250 1339 252 1329Q263 1357 264 1359Q269 1368 278 1367Q288 1366 290 1356Q295 1329 296 1305Q297 1292 297 1269Q297 1242 297 1233Q304 1009 306 950Q307 921 311 857Q315 796 316 764Q317 746 319 549Q320 505 321 422Q322 334 323 292L355 292Q348 286 337 273Q326 261 320 255Q330 252 345 259Q362 265 371 263Q369 260 364 252Q359 244 355 238Q363 240 376 244Q390 247 398 250Q389 237 373 214Q381 215 394 219Q407 222 415 224Q403 204 382 179Q354 144 349 137Q358 134 372 140Q386 147 394 144Q392 138 368 101Q366 98 341 62Q351 53 349 55Q346 49 346 48Q310 1 302-9Q268-51 185-99Q184-99 168-98Q169-91 170-80Q165-78 164-79Q133-86 127-83Q123-73 138-50Q153-27 156-18Q139-28 131-33Q115-44 114-44Q101-50 95-47Q89-44 82-27Q59-27 56-26Q42-22 43-13Q44-6 34 10Q26 24 34 34Q35 36 58 64Q31 80 36 77Q36 74 68 123Q64 128 58 134Q71 173 114 209Q157 244 211 261Q210 254 204 247Q198 238 197 234Q203 232 203 232Q247 258 296 276Q298 276 319 287Q316 309 316 310Q305 334 291 414Q267 551 268 543Q268 543 263 548M328 1467Q345 1459 345 1440Q347 1266 347 1250Q344 1138 334 1005Q320 1218 320 1236Q314 1390 328 1467Z"  horiz-adv-x="429" vert-adv-y="2048"  />

      
      <glyph glyph-name="uni22" unicode="&#x22;" d="M184 1503Q196 1480 197 1478Q204 1465 204 1455Q203 1455 163 1486Q188 1424 189 1420Q175 1429 155 1449Q134 1469 122 1478Q127 1467 134 1451Q141 1435 143 1428Q137 1427 125 1437Q121 1440 116 1445Q109 1451 106 1454Q98 1461 87 1462Q113 1397 126 1365Q30 1445 0 1461Q20 1425 22 1422Q55 1359 120 1277Q141 1250 222 1143Q246 1111 275 1105Q276 1110 277 1120Q279 1129 280 1134Q288 1130 288 1130Q330 1079 324 1085Q347 1060 366 1066Q368 1066 382 1055Q397 1044 404 1047Q415 1053 411 1068Q411 1069 414 1074Q459 1038 453 1039Q459 1058 451 1092Q472 1068 473 1066Q478 1060 488 1046Q498 1033 503 1026Q515 1011 528 1017Q539 1022 531 1042Q526 1052 522 1061Q433 1232 339 1356Q298 1409 189 1508Q188 1507 186 1505Q185 1504 184 1503M656 1011Q684 979 687 977Q699 964 708 977Q711 982 718 982Q740 983 736 1000Q735 1002 724 1035Q744 1014 745 1013Q754 1001 771 978Q788 955 797 944Q810 927 823 930Q828 933 829 934Q844 966 844 977Q844 988 827 1019Q746 1165 642 1295Q614 1330 532 1398Q531 1398 515 1406Q520 1392 530 1366Q523 1371 513 1378Q503 1385 498 1389Q498 1378 506 1363Q514 1348 514 1340Q510 1339 498 1349Q494 1351 488 1357Q482 1363 479 1365Q478 1367 459 1381Q461 1368 471 1349Q483 1328 485 1316Q459 1336 458 1337Q440 1350 433 1348Q429 1347 414 1362Q405 1370 349 1425Q346 1419 353 1404Q407 1295 514 1158Q507 1167 608 1028Q623 1008 638 992Q638 991 656 982L656 1011Z"  horiz-adv-x="858" vert-adv-y="2048"  />

      
      <glyph glyph-name="uni23" unicode="&#x23;" d="M533 727Q550 777 564 822Q641 821 720 821Q705 769 696 740Q692 726 693 729Q672 729 615 728Q566 727 538 727L533 727M1150 884Q1101 889 1067 898Q1094 900 1153 905Q1209 910 1239 913Q1218 918 1160 919Q1152 919 1122 919Q1098 919 1083 919Q1013 921 1004 923Q1011 926 1061 934Q1056 933 1119 941Q1161 947 1175 949Q1211 955 1233 963Q1230 963 1224 964Q1216 964 1212 965Q1231 976 1229 975Q1192 976 1143 977Q1148 981 1168 983Q1174 984 1182 984Q1194 985 1196 985Q1214 987 1224 991Q1212 994 1212 994Q1182 995 1091 1000Q1016 1004 971 1007Q983 1054 1009 1161Q1009 1162 1012 1182L1010 1183L1010 1183L1009 1183Q1010 1183 1009 1183Q1009 1183 1009 1183L1008 1184Q1005 1178 999 1165Q993 1153 990 1147Q989 1147 987 1148L1011 1292Q1011 1292 1008 1293Q1002 1284 1002 1283Q1000 1277 990 1254Q983 1235 978 1224Q959 1180 941 1149Q947 1177 959 1234Q972 1290 978 1318Q967 1300 949 1245Q946 1237 937 1208Q930 1185 925 1171Q902 1105 898 1097Q897 1104 905 1154Q904 1149 915 1212Q922 1254 924 1268Q929 1304 928 1328Q927 1325 920 1308Q919 1310 918 1317Q917 1323 916 1327Q905 1297 888 1246Q886 1252 890 1271Q891 1277 893 1285Q895 1296 896 1299Q900 1317 899 1327Q893 1317 892 1316Q789 1037 780 1012Q751 1012 698 1011Q641 1010 616 1009Q628 1057 653 1161Q654 1162 657 1182L655 1183L654 1183Q655 1183 654 1183L654 1183Q656 1182 654 1183Q655 1183 654 1183L654 1183Q655 1183 654 1183L653 1184L653 1184Q650 1178 644 1165Q638 1153 635 1147L631 1148Q648 1244 656 1292Q655 1292 653 1293Q647 1284 647 1283Q644 1277 635 1254Q628 1235 623 1224Q604 1180 585 1149Q591 1177 604 1234Q616 1290 622 1318Q611 1300 593 1245Q591 1237 582 1208Q575 1185 570 1171Q547 1105 542 1097Q542 1104 549 1154Q549 1150 559 1212Q566 1253 569 1268Q574 1304 573 1328Q575 1332 565 1308Q562 1321 560 1327Q550 1297 533 1246Q530 1252 534 1271Q535 1277 537 1285Q540 1296 541 1299Q545 1317 544 1327Q537 1317 537 1316Q433 1036 424 1008Q345 1008 247 1008Q246 1008 193 1010Q181 1011 179 1010Q168 1010 167 1001Q166 993 177 990Q179 990 193 987Q194 987 224 982Q216 979 193 977Q175 976 166 967Q170 963 203 957Q204 956 240 952Q264 949 277 944Q261 942 260 942Q248 942 209 940Q178 939 158 938Q150 938 140 934Q136 933 137 927Q137 921 142 920Q147 919 161 918Q183 917 235 915Q283 912 309 911Q320 911 327 906Q304 904 302 904Q291 904 220 901Q169 899 137 897Q125 897 111 894Q111 894 103 886Q98 888 136 877Q136 877 136 876Q136 875 136 874Q99 873 96 873Q81 873 75 871Q69 869 66 862Q63 852 73 848Q83 845 94 844Q184 838 219 836Q293 832 367 829Q349 769 341 740Q340 738 338 733Q337 727 336 726Q267 726 181 725Q181 725 127 728Q116 728 113 728Q102 727 101 719Q100 711 111 708Q113 707 127 705Q131 704 158 700Q151 696 128 695Q109 694 101 684Q105 680 137 674Q139 674 174 669Q199 667 211 662Q195 660 194 660Q183 659 144 658Q112 656 93 656Q84 655 75 652Q71 650 71 644Q72 638 76 637Q81 636 95 636Q115 635 169 632Q216 630 244 628Q255 628 261 623L237 621Q223 621 154 618Q104 616 72 614Q59 614 46 612Q45 611 38 604Q44 602 70 594Q70 593 70 592Q35 591 31 591Q15 590 10 588Q3 586 1 579Q-2 569 8 566Q17 563 28 562Q118 555 153 553Q217 550 281 547Q259 477 235 400Q235 399 217 349Q213 338 213 335Q210 325 218 321Q225 318 231 327Q233 329 239 342Q241 346 253 370Q254 362 249 339Q244 322 251 311Q256 313 271 342Q272 344 287 377Q297 399 305 409Q302 393 302 393Q299 381 289 344Q281 313 276 294Q273 286 274 276Q274 272 280 270Q286 269 288 273Q291 278 295 291Q303 311 321 360Q337 405 347 430Q350 441 357 445Q352 423 351 422Q348 408 330 342Q317 293 309 262Q305 250 304 236Q304 236 309 226Q329 258 327 255Q329 254 330 254Q320 219 319 216Q315 201 315 195Q315 188 321 184Q330 178 336 186Q342 195 346 205Q379 289 391 321Q433 434 471 541Q556 538 634 538Q608 454 591 400Q590 399 573 349Q569 338 568 335Q565 325 573 321Q581 318 587 327Q588 329 594 342Q595 343 608 370Q610 362 604 339Q600 322 606 311Q611 313 627 342Q627 343 642 377Q652 399 661 409Q658 393 657 393Q654 381 644 344Q636 313 631 294Q629 286 629 276Q629 272 636 270Q641 269 643 273Q646 278 651 291Q658 309 676 360Q692 404 702 430Q706 441 712 445Q707 422 707 422Q704 411 685 342Q672 293 664 262Q661 250 659 236Q659 236 664 226Q668 232 674 241Q680 250 683 255Q683 255 684 254Q685 254 685 254Q676 220 674 216Q670 201 670 195Q670 188 676 184Q685 178 691 186Q697 195 701 205Q735 289 747 321Q789 434 826 541Q890 544 1033 554Q1034 554 1054 557Q1054 557 1054 559Q1054 560 1054 561Q1047 562 1034 564Q1020 566 1014 567L1014 569Q1014 570 1014 571Q1110 584 1158 590Q1158 591 1158 593Q1148 596 1147 596Q1141 597 1116 599Q1096 600 1084 602Q1036 607 1001 615Q1064 621 1174 630Q1152 635 1095 636Q1087 636 1056 636Q1032 636 1017 636Q947 638 938 640Q945 643 995 651Q990 650 1054 659Q1095 664 1110 667Q1146 672 1168 680Q1165 680 1158 681Q1151 682 1146 682Q1159 690 1164 692Q1108 693 1078 694Q1083 698 1102 700Q1108 701 1117 702Q1128 702 1131 702Q1149 704 1159 708Q1147 711 1146 711Q1120 712 1017 718Q938 722 888 725Q905 777 920 825Q976 828 1098 836Q1100 837 1119 839Q1120 842 1120 844Q1090 848 1079 850L1079 852Q1079 853 1080 854Q1104 857 1152 863Q1200 870 1224 873Q1224 874 1224 876Q1214 879 1213 879Q1206 880 1181 881Q1162 883 1150 884Z"  horiz-adv-x="1246" vert-adv-y="2048"  />

      
      <glyph glyph-name="uni24" unicode="&#x24;" d="M753 695Q770 677 798 689Q795 690 787 694Q780 697 776 698Q763 702 753 695M191 956Q165 955 137 941Q162 937 191 956M512 857Q524 905 516 943Q491 937 435 922Q381 908 352 901Q444 860 512 857M326 626Q405 655 413 658Q420 661 456 673Q482 681 499 689Q378 737 333 741Q326 622 326 626M546 509Q541 498 541 497Q537 466 532 416Q531 402 529 380Q526 354 525 344Q523 325 516 312Q512 323 512 323Q507 382 513 428Q520 474 514 571Q514 572 509 580Q487 482 489 487Q389 443 304 418Q300 391 291 317Q284 253 276 215Q275 252 274 327Q273 327 271 327Q268 295 263 231Q257 167 255 135Q256 132 243 339Q223 262 225 268Q224 286 222 327Q219 365 218 386Q210 382 210 365Q209 348 208 321Q207 284 206 276Q206 275 204 256Q201 260 199 281Q199 280 198 304Q198 318 197 330Q196 346 196 353Q195 354 192 378Q173 375 169 374L168 376L168 377L167 377Q172 381 179 387Q188 393 192 396L192 423Q175 419 174 419Q138 407 116 398Q97 391 84 394Q86 393 57 390Q51 389 51 393Q50 400 53 402Q58 406 73 414Q96 426 106 434Q89 430 88 430Q97 433 20 407Q5 402 0 412Q7 422 25 429Q45 438 53 445Q31 441 29 441Q21 441 20 448Q18 455 24 458Q28 460 57 473Q41 479 41 479Q36 482 35 486Q35 491 39 494Q44 498 54 503Q47 499 167 558Q167 558 184 567Q205 726 189 865Q184 849 184 849Q184 841 180 797Q165 799 164 800Q128 811 86 825Q75 829 70 832Q52 844 57 859Q58 860 56 874Q45 878 33 884Q49 900 48 900Q44 916 24 922Q24 926 28 937Q33 946 28 952Q25 956 34 962Q43 969 54 973Q79 984 167 1020Q168 1020 191 1029Q193 1049 193 1050Q199 1192 199 1191Q200 1210 208 1277Q210 1288 214 1294Q214 1295 226 1301Q227 1299 228 1244Q228 1233 227 1214Q225 1192 225 1185Q224 1155 227 1129Q243 1215 244 1224Q248 1242 255 1274Q258 1288 262 1294Q266 1302 273 1302Q280 1302 280 1291Q280 1282 279 1281Q272 1248 283 1218Q289 1249 289 1248Q293 1270 303 1274Q304 1274 315 1268Q322 1264 328 1272Q338 1254 338 1254Q341 1256 341 1256Q346 1275 346 1275Q348 1280 356 1280Q362 1280 363 1274Q366 1259 365 1249Q364 1225 361 1180Q358 1133 357 1111Q356 1087 361 1076Q362 1074 365 1040Q372 1054 372 1055Q373 1058 377 1084Q450 1105 509 1113Q510 1091 510 1089L510 1067Q514 1065 514 1065Q515 1065 515 1067Q516 1068 519 1075Q522 1057 525 1043Q528 1045 532 1068Q534 1080 536 1096Q536 1103 537 1124Q537 1128 538 1138Q538 1147 538 1152Q538 1157 539 1166Q540 1175 540 1180Q541 1200 545 1208Q548 1196 551 1185Q556 1200 556 1200Q557 1205 559 1222Q560 1235 562 1243Q565 1263 577 1259Q588 1256 586 1239Q584 1223 582 1193Q582 1187 586 1181Q592 1225 593 1234Q595 1249 594 1246Q597 1258 604 1259Q613 1261 613 1244Q612 1227 611 1198Q609 1164 608 1152Q608 1151 610 1128Q619 1138 619 1139Q619 1139 629 1202Q632 1222 634 1229Q636 1239 639 1240Q650 1245 654 1270Q658 1291 660 1300Q662 1307 668 1306Q674 1304 677 1299Q678 1295 678 1286Q676 1265 672 1220Q668 1176 666 1154Q666 1153 668 1142Q684 1142 727 1148Q764 1154 787 1152Q786 1151 742 1138Q702 1126 696 1124Q714 1121 754 1125Q793 1128 815 1125Q792 1119 743 1105Q698 1093 674 1086Q681 1083 735 1084Q740 1085 801 1085Q803 1086 751 1069Q714 1057 703 1052Q721 1052 752 1058Q787 1064 802 1065Q776 1050 774 1050Q768 1047 743 1039Q737 1038 727 1035Q716 1032 711 1030Q670 1018 661 1012Q673 1010 693 1013Q719 1018 729 1018Q687 1003 656 991Q648 826 648 807Q761 758 774 754Q785 749 805 740Q826 729 835 726Q847 721 895 697Q908 691 916 682Q904 684 903 684Q883 691 840 704Q798 717 776 724Q775 725 754 729Q790 695 838 689Q817 680 796 672Q807 664 824 667Q843 670 850 669Q842 665 826 658Q829 635 810 622Q794 612 777 604Q767 600 666 558Q665 558 636 545Q626 421 624 400Q614 279 609 255Q604 341 601 404Q597 369 593 324Q590 324 588 324Q585 380 578 481L574 481Q573 457 570 406Q568 357 566 331L563 331Q561 360 557 420Q554 479 552 508Q551 509 549 509Q547 509 546 509Z"  horiz-adv-x="930" vert-adv-y="2048"  />

      
      <glyph glyph-name="uni25" unicode="&#x25;" d="M0 1081Q18 1111 19 1113Q34 1113 37 1096Q54 991 63 934Q64 933 68 889Q54 908 54 909Q16 988 11 1022Q11 1024 0 1052L0 1081M770 1147Q812 1198 902 1316Q988 1427 1037 1485Q1040 1476 1027 1454Q986 1386 923 1281Q833 1131 820 1109Q819 1108 800 1072Q814 1081 823 1086Q822 1076 821 1076Q646 762 623 723Q483 484 380 287Q373 273 363 256Q363 256 357 252Q354 273 371 318Q386 361 389 383Q373 355 372 354Q352 317 306 233Q264 154 241 112Q231 94 224 84Q223 83 211 75Q199 83 205 99Q210 114 218 138Q229 167 232 176Q236 186 232 194Q208 147 206 144Q201 133 184 97Q170 68 161 51Q152 34 145 27Q137 19 126 22Q113 26 116 43Q118 50 123 63Q134 88 173 182Q204 256 223 301Q228 314 225 326Q208 297 207 296Q149 191 152 196Q143 181 132 170Q126 165 116 168Q104 171 107 185Q112 203 119 219Q232 470 251 509Q342 699 480 927Q588 1103 735 1273Q816 1365 889 1448Q908 1469 926 1477Q925 1472 904 1441Q906 1444 881 1409Q864 1384 859 1376Q846 1357 841 1342Q855 1355 892 1394Q922 1427 944 1443Q943 1437 916 1395Q911 1386 901 1371Q889 1354 885 1347Q870 1324 852 1296Q840 1276 823 1247Q801 1210 794 1197Q772 1158 770 1147M911 355Q916 360 917 379Q917 385 917 401Q917 415 917 426Q917 441 916 447Q915 454 912 472Q909 487 907 497Q907 500 905 507Q903 514 902 517Q902 519 899 538Q913 527 924 506Q926 504 945 465Q949 567 905 626Q863 606 861 604Q776 548 714 413Q722 419 737 437Q753 457 762 468Q772 479 789 487Q778 469 758 437Q728 388 714 336Q705 301 713 268Q721 233 750 224Q801 209 833 215Q842 237 864 324Q871 353 863 445Q879 427 911 355M746 655Q740 645 720 625Q701 605 693 589Q711 599 735 621Q801 682 898 698Q899 698 925 698Q911 684 910 684Q902 679 888 672Q872 663 866 660Q822 635 790 599Q814 608 814 608Q864 640 910 635Q928 622 943 591Q978 519 993 480Q1029 387 1035 351Q1070 162 933 52Q873 3 790-1Q706-6 638 39Q557 91 541 188Q503 413 632 584Q661 623 703 648Q729 663 746 655M315 1316Q283 1319 282 1318Q246 1308 237 1282Q197 1165 215 1071Q218 1053 229 1035Q242 1010 275 1014Q305 1017 314 1045Q330 1099 341 1149Q350 1191 334 1237Q328 1256 336 1265Q339 1265 345 1263Q352 1262 356 1261Q356 1261 345 1281Q349 1282 358 1284Q366 1285 371 1286Q370 1289 366 1302Q363 1312 360 1318Q366 1322 374 1313Q415 1267 427 1233Q432 1219 444 1191Q455 1164 460 1150Q504 1026 416 923Q365 864 284 859Q240 856 209 863Q132 880 94 957Q63 1019 64 1081Q66 1168 74 1234Q80 1281 120 1365Q120 1366 125 1369Q127 1364 132 1353Q149 1372 150 1374Q185 1411 235 1416Q239 1417 296 1426Q295 1422 293 1417Q290 1412 289 1410Q297 1404 332 1387Q360 1374 372 1358Q372 1358 372 1345Q333 1363 250 1356Q213 1352 195 1316Q198 1314 211 1321Q214 1323 218 1326Q224 1330 226 1331Q258 1350 283 1345Q298 1343 309 1335Q310 1334 315 1316Z"  horiz-adv-x="1053" vert-adv-y="2048"  />

      
      <glyph glyph-name="uni26" unicode="&#x26;" d="M256 254Q246 298 246 300Q245 303 239 349Q222 301 256 254M845 1304Q843 1286 843 1285Q864 1175 863 1177Q876 1256 845 1304M369 501Q364 497 363 497Q360 494 354 486Q291 402 275 289Q270 255 294 227Q318 199 350 214Q368 222 401 236Q437 252 452 259Q452 259 469 269Q455 303 419 386Q387 459 369 501M657 1261Q652 1255 652 1255Q644 1252 638 1250Q551 1225 505 1166Q474 1126 472 1084Q467 993 467 980Q467 954 448 941Q435 931 386 892Q374 883 389 872Q410 884 411 885Q608 1023 601 1018Q648 1050 708 1136Q718 1150 737 1194Q743 1207 745 1225Q750 1263 713 1277Q653 1300 583 1280Q534 1266 511 1243Q603 1279 657 1261M357 1331Q296 1261 284 1216Q272 1173 273 1149Q284 1174 284 1175Q326 1292 442 1369Q528 1425 658 1422Q729 1420 792 1387Q871 1345 902 1274Q934 1203 913 1116Q880 976 759 876Q730 852 720 841Q785 857 816 906Q815 883 814 883Q796 846 767 825Q720 792 692 775Q619 730 494 634Q465 611 454 591Q473 598 502 617Q537 640 550 646Q563 628 564 627Q597 556 664 462Q665 461 680 442Q689 453 715 486Q715 469 707 450Q696 426 695 421Q698 419 711 414Q712 412 716 403Q719 396 721 390Q718 387 833 503Q835 501 839 497Q842 493 844 492Q866 515 901 554Q898 524 898 523Q908 531 916 537Q920 532 920 532Q902 471 899 464Q889 444 810 293Q808 296 862 227Q883 200 921 159Q926 154 988 89Q965 93 965 94Q956 100 900 140Q912 100 933 81Q963 54 983 25Q979 26 971 29Q962 32 959 33Q957 31 957 31Q957 30 957 21Q930 35 879 62Q885 45 901 23Q922-5 927-13Q912-6 884 14Q858 34 841 41Q849 32 869 9Q888-13 900-27Q886-24 861-6Q856-3 844 7Q833 15 827 20Q820 24 807 32Q794 40 787 44Q774 53 753 70Q727 90 719 95Q729 75 808-23Q792-19 777-9Q756 4 755 5Q752 4 752 4Q751 2 752 0Q758-9 760-11Q785-41 795-52Q788-44 834-94Q834-94 833-100Q786-73 717-11Q709-4 610 87Q589 75 588 75Q481 12 334-5Q170-23 66 115Q47 141 37 180Q4 300 39 431Q39 431 72 540Q72 541 74 556Q60 543 59 543Q36 502 14 419Q14 417 3 373Q-3 395 2 424Q34 586 145 692Q150 696 231 770Q223 793 223 794Q173 934 191 1079Q192 1090 191 1108Q190 1131 190 1136Q191 1174 193 1211Q194 1219 206 1225L202 1159L207 1158Q220 1185 220 1186Q249 1259 307 1312Q320 1324 332 1331Q333 1331 357 1331Z"  horiz-adv-x="1005" vert-adv-y="2048"  />

      
      <glyph glyph-name="uni27" unicode="&#x27;" d="M168 1070Q167 1074 164 1083Q161 1092 159 1098Q156 1095 126 1073L115 1095Q113 1095 104 1095Q96 1096 91 1096Q87 1110 93 1128Q101 1153 102 1160Q95 1155 79 1134Q66 1117 50 1112Q50 1113 47 1119Q44 1124 42 1128Q31 1119 31 1119Q17 1104 7 1107Q-7 1112 1 1135Q7 1154 12 1165Q67 1283 134 1368Q171 1415 274 1544Q275 1545 299 1572Q302 1565 296 1554Q290 1543 291 1537Q299 1539 311 1551Q322 1562 331 1565Q334 1556 326 1539Q318 1523 320 1512Q333 1522 352 1537Q353 1525 344 1505Q334 1484 333 1471Q350 1485 379 1513Q408 1542 425 1555Q420 1534 420 1533Q414 1519 404 1497Q391 1467 388 1461Q384 1451 387 1441Q394 1448 410 1462Q426 1477 437 1486Q436 1477 422 1446Q420 1443 403 1409Q410 1408 422 1418Q424 1419 437 1433Q455 1450 453 1448Q454 1449 472 1466Q469 1451 468 1451Q375 1283 317 1217Q308 1206 211 1090Q189 1064 168 1070Z"  horiz-adv-x="477" vert-adv-y="2048"  />

      
      <glyph glyph-name="uni28" unicode="&#x28;" d="M201 1095Q205 1103 255 1202Q287 1268 313 1309Q311 1292 301 1267Q290 1233 287 1225Q268 1151 266 1138Q251 1062 252 1042Q364 1317 380 1344Q374 1325 374 1324Q298 1110 255 901Q228 771 221 653Q215 528 215 520Q217 255 378 73Q399 48 424 5Q431-8 478-79Q491-98 492-100Q495-101 446-76Q444-75 438-71Q432-67 429-65Q419-60 408-67Q405-69 388-61Q378-56 358-46Q337-36 327-31Q326-31 294-18Q296-31 313-58Q314-61 338-95Q320-91 319-91Q245-55 230-46Q204-31 183-7Q57 137 22 327Q1 441-1 573Q-3 776 31 980Q55 1127 132 1289Q178 1388 232 1466Q243 1482 256 1492Q252 1474 240 1449Q225 1415 222 1407Q195 1331 191 1312Q207 1325 207 1326Q213 1334 233 1364Q249 1388 260 1402Q282 1434 293 1436Q294 1436 310 1458Q313 1462 346 1509Q351 1501 342 1480Q250 1257 227 1187Q226 1182 201 1095Z"  horiz-adv-x="456" vert-adv-y="2048"  />

      
      <glyph glyph-name="uni29" unicode="&#x29;" d="M275-56Q268 10 265 37Q258 27 194-83Q190-67 190-66Q184 24 184 48Q183 64 188 94Q195 131 185 161Q178 144 178 143Q175 135 174 125Q168 73 140 20Q139 18 94-77Q93-78 81-100Q81 73 82 90Q83 107 97 196Q131 401 126 614Q124 717 108 907Q103 973 85 1033Q67 1090 6 1301Q6 1303 0 1334Q5 1330 21 1295Q21 1296 36 1255Q46 1228 51 1215Q61 1191 70 1177Q58 1288 11 1454Q29 1443 29 1442Q65 1380 70 1367Q77 1351 130 1202Q134 1192 141 1188Q136 1222 135 1224Q126 1262 110 1330Q92 1405 84 1436Q84 1437 78 1475Q95 1457 96 1457Q137 1379 145 1361Q152 1343 224 1165Q230 1148 236 1139Q234 1156 185 1424Q196 1402 196 1401Q308 1120 358 808Q375 695 376 565Q376 392 373 321Q368 210 346 90Q342 70 335 56Q323 30 283-50Q282-50 275-56Z"  horiz-adv-x="401" vert-adv-y="2048"  />

      
      <glyph glyph-name="uni2a" unicode="&#x2a;" d="M154 920Q154 967 154 971Q155 974 163 1019Q149 1015 133 1000Q114 982 106 977Q139 1084 183 1135Q189 1133 135 1140Q86 1147 75 1150Q43 1159 38 1192Q41 1195 52 1204Q62 1211 68 1217Q39 1245 30 1270Q29 1272 0 1302Q17 1304 56 1308Q91 1311 111 1313Q105 1325 88 1337Q68 1353 61 1361Q130 1347 135 1346Q140 1344 209 1326Q213 1353 213 1354Q214 1372 215 1410Q217 1446 218 1465Q219 1481 222 1490Q231 1524 263 1508Q264 1508 283 1495Q296 1510 302 1511Q307 1512 332 1507Q352 1503 356 1476Q357 1463 360 1439Q363 1413 364 1402Q364 1401 370 1375Q441 1450 451 1455Q453 1457 510 1486Q504 1474 495 1456Q486 1436 482 1428Q500 1431 500 1431Q504 1433 537 1448Q527 1426 519 1409Q524 1409 535 1411Q544 1412 550 1413Q549 1408 520 1352Q532 1345 533 1344Q532 1341 401 1204Q448 1153 454 1147Q459 1142 466 1134Q474 1124 478 1120Q516 1079 516 1019Q499 1020 496 1001Q489 1002 469 1005Q472 998 490 959Q362 1024 329 1082Q306 1044 305 1042Q277 989 232 960Q214 949 204 947Q200 946 154 920Z"  horiz-adv-x="552" vert-adv-y="2048"  />

      
      <glyph glyph-name="uni2b" unicode="&#x2b;" d="M76 609Q89 637 87 633Q83 637 83 638Q81 638 75 638Q56 639 55 647Q54 655 63 669Q64 670 80 686Q82 685 42 678Q19 675 14 675Q4 676 1 685Q-3 694 3 703Q5 706 12 713Q13 714 23 722Q19 734 19 736Q19 737 20 743Q63 767 272 857Q274 878 274 879Q273 912 272 967Q270 1034 270 1054Q269 1069 271 1072Q276 1085 282 1088Q294 1093 302 1076Q305 1070 307 1055Q314 1021 319 1007Q325 1078 326 1089Q327 1105 329 1111Q332 1119 339 1123Q347 1126 355 1122Q370 1114 381 1116Q394 1119 400 1103Q401 1101 408 1076Q432 1089 434 1089Q435 1089 455 1073Q463 1113 464 1116Q468 1127 477 1128Q486 1129 492 1119Q499 1107 501 1093Q502 1083 514 986Q514 983 518 948Q643 977 652 979Q758 1000 782 998Q769 992 748 982Q720 968 711 964Q722 959 748 962Q769 965 781 962Q771 957 751 947Q732 937 722 932Q723 928 723 927L775 927Q768 915 752 907Q734 897 730 893Q738 884 742 880Q701 850 691 843Q694 836 693 838Q813 860 865 869Q862 866 784 821Q746 799 706 779Q677 765 627 744Q620 741 542 711Q542 587 542 578Q540 527 519 444Q512 462 482 588Q475 569 470 534Q465 497 459 480Q448 490 443 512Q437 535 431 543Q424 523 417 471Q411 425 401 400Q385 471 382 484Q371 459 368 451Q359 460 355 475Q349 495 347 498Q338 482 336 461Q336 458 333 420Q323 419 320 432Q315 460 306 506Q294 563 291 579Q291 580 284 612Q128 568 125 568Q132 588 133 588Q136 592 174 624Q150 618 149 618L104 606Q103 606 76 609Z"  horiz-adv-x="865" vert-adv-y="2048"  />

      
      <glyph glyph-name="uni2c" unicode="&#x2c;" d="M108-300Q107-296 104-287Q101-278 99-272Q96-275 66-297L55-275Q53-275 44-275Q36-274 31-274Q27-260 33-242Q41-217 42-210Q35-215 19-236Q6-253-10-258Q-10-257-13-251Q-16-246-18-242Q-29-251-29-251Q-43-266-53-263Q-67-258-59-235Q-53-216-48-205Q7-87 74-2Q111 45 214 174Q215 175 239 202Q242 195 236 184Q230 173 231 167Q239 169 251 181Q262 192 271 195Q274 186 266 169Q258 153 260 142Q273 152 292 167Q293 155 284 135Q274 114 273 101Q290 115 319 143Q348 172 365 185Q360 164 360 163Q354 149 344 127Q331 97 328 91Q324 81 327 71Q334 78 350 92Q366 107 377 116Q376 107 362 76Q360 73 343 39Q350 38 362 48Q364 49 377 63Q395 80 393 78Q394 79 412 96Q409 81 408 81Q315-87 257-153Q248-164 151-280Q129-306 108-300Z"  horiz-adv-x="474" vert-adv-y="2048"  />

      
      <glyph glyph-name="uni2d" unicode="&#x2d;" d="M825 875Q813 868 789 856Q766 843 754 836Q754 836 754 834Q755 833 755 833Q792 836 810 837Q797 825 771 809Q745 793 734 781Q745 784 762 789Q779 794 786 796Q786 795 787 794Q788 793 788 792Q780 785 779 785Q630 699 608 687Q472 614 206 509Q172 495 117 490Q141 520 138 516Q127 515 103 508Q81 502 67 503Q71 516 87 528Q105 542 109 550Q105 551 75 542Q56 537 52 539Q47 541 39 559Q35 566 25 567Q10 569 11 580Q12 589 21 597Q42 618 41 616Q19 611 18 611Q0 608-3 621Q-5 631 4 639Q19 651 37 660Q216 751 290 787Q453 867 755 937Q756 937 774 937Q771 935 719 907Q720 906 720 905Q721 903 721 902Q738 906 771 914Q804 921 821 925Q803 910 770 892Q726 871 712 861Q729 862 770 870Q804 876 825 875Z"  horiz-adv-x="830" vert-adv-y="2048"  />

      
      <glyph glyph-name="uniad" unicode="&#xad;" d="M825 875Q813 868 789 856Q766 843 754 836Q754 836 754 834Q755 833 755 833Q792 836 810 837Q797 825 771 809Q745 793 734 781Q745 784 762 789Q779 794 786 796Q786 795 787 794Q788 793 788 792Q780 785 779 785Q630 699 608 687Q472 614 206 509Q172 495 117 490Q141 520 138 516Q127 515 103 508Q81 502 67 503Q71 516 87 528Q105 542 109 550Q105 551 75 542Q56 537 52 539Q47 541 39 559Q35 566 25 567Q10 569 11 580Q12 589 21 597Q42 618 41 616Q19 611 18 611Q0 608-3 621Q-5 631 4 639Q19 651 37 660Q216 751 290 787Q453 867 755 937Q756 937 774 937Q771 935 719 907Q720 906 720 905Q721 903 721 902Q738 906 771 914Q804 921 821 925Q803 910 770 892Q726 871 712 861Q729 862 770 870Q804 876 825 875Z"  horiz-adv-x="830" vert-adv-y="2048"  />

      
      <glyph glyph-name="uni2e" unicode="&#x2e;" d="M286 244Q297 247 317 252Q340 258 351 261Q337 243 330 233Q335 230 335 230Q343 232 379 243Q360 223 342 202Q341 202 355 192Q354 191 335 160Q367 153 367 154Q361 144 350 124Q338 105 332 93Q343 97 362 103L364 97Q320 31 284 1Q270-10 241-34Q212-57 198-69Q189-76 183-78Q164-86 153-77Q142-68 143-47Q143-47 145-38Q133-25 129-22L126-21Q119-24 91-35Q78-28 77-28Q51-15 49-12Q46-6 50 23Q28 28 25 39Q22 51 42 78Q18 73 16 73Q4 74 1 80Q-3 90 2 100Q4 105 18 118Q96 190 178 244Q234 282 331 301Q325 289 309 272Q291 255 286 244Z"  horiz-adv-x="391" vert-adv-y="2048"  />

      
      <glyph glyph-name="uni2f" unicode="&#x2f;" d="M723 1284Q724 1284 726 1283Q727 1282 728 1281Q771 1341 857 1460Q858 1460 860 1460Q861 1459 862 1459Q858 1443 858 1442Q854 1433 839 1398Q826 1370 819 1353Q792 1285 778 1233Q874 1379 922 1453Q914 1421 873 1343Q867 1332 845 1291Q828 1259 818 1239Q771 1144 767 1130Q775 1137 822 1199Q817 1192 874 1272Q911 1323 925 1341Q958 1385 985 1409Q983 1406 979 1396Q975 1386 972 1379Q981 1385 998 1395Q976 1352 938 1278Q948 1282 965 1307Q970 1314 977 1325Q986 1340 988 1343Q1003 1367 1016 1377Q1011 1359 1011 1358Q805 922 777 866Q744 799 687 699Q603 548 595 533Q498 354 338 57Q337 56 302-17Q294-33 292-37Q283-51 271-46Q260-42 263-25Q264-22 271-1Q273 5 287 44Q276 37 258 7Q243-17 224-21Q222-13 237 34Q238 37 258 88Q272 122 274 142Q259 122 259 121Q250 106 220 55Q196 13 181-12Q174-23 163-33Q158-38 150-32Q143-27 144-21Q147-13 155 6Q169 34 204 108Q235 172 253 209Q260 225 258 237Q239 207 238 205Q228 188 174 97Q135 31 110-11Q101-27 88-43Q88-43 71-48Q76-29 83 2Q79 3 79 4Q53-43 49-48Q37-69 31-75Q24-82 12-80Q-3-77-1-61Q2-46 9-31Q65 95 87 142Q280 554 456 879Q532 1022 719 1319Q719 1320 738 1345Q739 1344 744 1343L723 1284Z"  horiz-adv-x="1026" vert-adv-y="2048"  />

      
      <glyph glyph-name="uni30" unicode="&#x30;" d="M249 264Q220 311 217 315Q215 317 204 342Q195 360 182 371Q190 302 243 259L249 264M68 550Q63 535 63 535Q64 492 66 478Q95 301 193 142Q202 127 215 115Q220 110 230 118Q233 119 232 130Q232 133 228 136Q201 155 168 215Q83 370 68 550M597 1205Q564 1184 563 1183Q537 1162 522 1148Q383 1007 329 834Q276 663 305 513Q318 448 352 397Q383 352 427 327Q469 302 520 316Q561 327 593 352Q746 473 709 651Q699 698 692 728Q672 823 643 889Q628 923 607 954Q612 946 532 1055Q531 1056 517 1081Q573 1053 581 1049Q582 1049 596 1046Q594 1056 584 1074Q574 1090 573 1100Q582 1102 608 1091Q639 1078 642 1078Q644 1074 609 1148Q617 1150 632 1155Q614 1181 597 1205M527 1371Q479 1349 444 1315Q523 1340 529 1341Q586 1355 610 1350Q593 1336 592 1336Q493 1301 374 1172Q370 1167 369 1160Q482 1241 545 1267Q578 1280 598 1286Q505 1237 381 1077Q470 1149 477 1154Q484 1159 583 1220Q583 1221 581 1237Q595 1234 615 1221Q639 1205 652 1201Q637 1223 634 1227Q651 1230 672 1217Q708 1195 728 1180Q845 1091 904 993Q962 896 978 766Q997 606 955 468Q890 254 708 121Q611 50 514 25Q362-15 231 52Q100 119 41 263Q4 353-3 473Q-19 740 77 963Q187 1220 440 1355Q457 1364 496 1378Q505 1381 527 1371M599 804Q588 791 582 783Q600 785 612 786Q604 776 592 761Q577 744 570 735Q580 738 593 742Q610 747 617 748Q608 737 597 721Q582 701 578 696Q590 696 611 704Q632 712 645 713Q610 661 612 663Q613 662 620 652Q617 646 597 614Q616 616 616 617Q624 620 674 642Q664 621 664 620Q615 543 537 491Q523 482 499 465Q472 446 461 438Q444 427 438 428Q432 430 420 448Q400 437 398 437Q389 433 381 439Q374 444 375 454Q375 456 381 476Q354 484 372 511Q355 515 355 516Q343 522 349 534Q350 536 364 560Q357 560 346 559Q334 558 331 558Q325 564 324 580Q323 593 314 598Q308 601 315 614Q318 620 329 630Q398 697 459 731Q479 743 511 762Q555 788 564 793Q565 794 594 809Q595 808 596 806Q598 805 599 804Z"  horiz-adv-x="1014" vert-adv-y="2048"  />

      
      <glyph glyph-name="uni31" unicode="&#x31;" d="M527 1487Q476 1450 462 1418Q496 1436 498 1437Q524 1449 527 1487M661 1543Q659 1549 667 1414Q686 1416 686 1416Q685 1410 685 1410Q664 1395 662 1364Q661 1342 657 1297Q653 1251 652 1229Q643 1081 613 923Q556 623 492 397Q481 357 428 199Q418 170 407 159Q397 162 400 177Q410 247 417 280Q425 322 440 392Q457 476 463 504Q465 516 460 529Q433 412 429 394Q386 208 349 107Q338 76 329 72Q313 77 316 98Q317 109 321 127Q324 148 326 155Q328 168 323 178Q295 82 292 72Q284 46 276 29Q276 28 262 19Q253 33 256 59Q263 115 275 190Q278 208 283 236Q289 271 291 282Q291 282 289 297Q246 160 242 149Q224 98 195 22Q187-1 175 0Q163 0 169 31Q169 34 196 160Q198 171 194 178Q168 103 164 93Q161 84 156 69Q151 52 148 45Q142 27 129 28Q114 29 117 54Q121 93 125 110Q171 302 186 357Q246 578 364 999Q364 1000 404 1125Q404 1126 410 1148Q388 1133 387 1132Q346 1094 279 1032Q194 953 172 932Q131 894 90 857Q75 843 63 848Q66 863 83 881Q101 902 105 912Q96 910 72 889Q54 872 34 876Q35 884 68 928Q71 932 107 974Q134 1005 145 1023Q130 1016 130 1015Q116 1005 88 982Q61 959 46 948Q45 947 18 930Q11 946 23 961Q37 980 38 988Q36 990 22 987Q10 984 8 1000Q5 996 47 1054Q18 1037 14 1036Q9 1033 5 1037Q-2 1045 0 1049Q4 1061 12 1071Q62 1128 81 1149Q223 1298 341 1390Q409 1444 550 1523Q542 1471 542 1467Q543 1459 536 1442Q529 1426 533 1414Q559 1426 562 1428Q580 1437 591 1443Q593 1444 624 1463Q625 1448 625 1447Q625 1446 628 1431Q641 1431 644 1448Q647 1462 661 1543Z"  horiz-adv-x="703" vert-adv-y="2048"  />

      
      <glyph glyph-name="uni32" unicode="&#x32;" d="M803 1328Q804 1306 829 1272Q824 1305 803 1328M626 1368Q597 1344 594 1338Q611 1330 636 1347Q630 1360 626 1368M664 1396Q680 1373 686 1371Q692 1369 711 1379Q707 1385 688 1414Q672 1402 664 1396M750 1286Q743 1276 748 1263Q749 1261 752 1253Q756 1247 757 1243Q759 1235 765 1220Q770 1205 773 1197Q774 1191 783 1150Q784 1147 792 1107Q797 1190 750 1286M368 658Q311 626 252 547Q192 469 188 421Q236 498 240 504Q245 511 302 579Q320 601 368 658M100 851Q123 874 155 907Q155 907 152 911Q124 892 122 890Q110 883 105 885Q100 887 89 904Q99 918 116 939Q139 969 144 975Q131 992 133 989Q86 953 80 949Q64 938 56 954Q56 966 75 988Q84 998 127 1044Q138 1055 124 1065Q92 1044 88 1042Q75 1034 67 1052Q93 1087 95 1089Q165 1171 301 1275Q411 1360 604 1441Q612 1444 617 1445Q617 1446 624 1445Q624 1437 616 1433Q604 1426 604 1426Q603 1424 576 1404Q602 1409 639 1424Q681 1441 696 1445Q704 1431 721 1415Q745 1395 749 1390Q804 1409 806 1410Q808 1407 809 1406Q791 1389 790 1388Q788 1387 768 1373Q779 1353 790 1357Q793 1358 801 1367Q807 1374 816 1372Q818 1372 844 1384Q848 1386 860 1391Q870 1396 876 1399Q895 1407 910 1407Q896 1397 829 1349Q849 1313 846 1317Q939 1152 929 982Q925 912 891 865Q854 814 820 780Q778 737 706 665Q620 581 591 552Q567 528 422 378Q421 378 418 371Q426 367 447 373Q466 379 495 388Q532 400 543 404Q621 428 806 466Q831 472 973 498Q973 499 997 501Q993 497 957 482Q956 481 915 467Q885 457 875 453Q872 452 827 435Q826 435 915 440Q932 441 958 445Q993 450 1001 450Q1045 455 1084 456Q1080 454 978 417Q971 414 925 398Q892 387 871 379Q767 340 765 338Q798 340 874 351Q944 361 983 362Q958 350 905 333Q850 315 822 302Q850 304 945 314Q1019 322 1066 322Q1059 315 1059 315Q782 226 748 217Q688 200 531 138Q481 118 273 46Q267 43 133 0Q128 30 127 35Q118 38 97 33Q78 28 67 36Q75 49 76 49Q81 52 119 75Q115 77 90 73Q90 73 62 69Q59 60 55 43Q51 25 49 17Q53 4 46 176Q17 172 15 172Q6 173 0 183Q-4 189 8 196Q20 204 39 212Q58 220 60 240Q63 268 70 309Q90 414 161 525Q238 645 384 770Q477 850 521 889Q577 939 612 997Q667 1088 625 1190Q616 1191 592 1174Q524 1126 416 1049Q275 948 241 925Q191 889 136 851Q116 838 100 851Z"  horiz-adv-x="1057" vert-adv-y="2048"  />

      
      <glyph glyph-name="uni33" unicode="&#x33;" d="M908 1381Q882 1381 873 1377Q864 1372 857 1356Q885 1350 908 1381M552 984Q551 984 549 986Q547 987 546 988Q512 945 505 935Q504 935 502 920Q524 928 535 948Q539 954 544 966Q549 978 552 984M506 77Q493 101 508 120Q511 124 547 173Q525 162 525 161Q509 149 476 125Q444 100 428 88Q426 87 393 65Q395 73 400 87Q394 84 371 73Q371 73 370 75Q369 76 369 77Q397 106 417 129Q412 132 398 123Q376 107 334 78Q289 46 269 32Q239 11 228 7Q225 11 225 12Q225 13 226 15Q228 18 231 20Q253 39 330 105Q296 100 303 101Q304 116 305 121Q298 122 298 121Q183 49 118 18Q80 1 62 0Q80 17 81 18Q91 24 131 49Q162 69 181 81Q221 109 253 141Q236 137 235 137Q211 128 169 113Q121 96 104 90Q86 83 60 88Q76 100 76 100Q242 188 235 184Q438 296 591 520Q661 622 745 791Q738 797 718 792Q496 736 465 728Q422 718 366 710Q335 706 337 722Q339 731 347 733Q349 734 355 735Q360 736 362 737Q447 765 492 786Q471 786 470 786Q455 784 426 778Q397 772 382 770Q368 767 349 780Q359 792 383 799Q410 807 420 816Q400 817 399 816Q394 816 386 814Q378 812 374 811Q357 809 353 820Q350 831 367 837Q369 838 404 850Q409 882 422 888Q422 888 430 899Q528 1050 549 1083Q550 1083 559 1101Q550 1107 527 1099Q267 1015 153 978Q96 959 60 956Q76 974 76 974Q121 1003 236 1054Q270 1069 287 1082Q269 1079 268 1078Q191 1049 38 989Q13 980 2 987Q8 1000 8 1001Q18 1009 32 1017Q44 1023 175 1091Q195 1101 204 1111Q185 1107 184 1107Q172 1102 61 1059Q37 1050 34 1049Q33 1049 11 1055Q29 1075 30 1075Q34 1077 101 1116Q114 1124 120 1130Q108 1130 63 1117Q26 1107 0 1112Q5 1118 64 1152Q69 1155 135 1188Q123 1188 87 1180Q59 1173 41 1182Q53 1198 54 1199Q80 1213 108 1227Q201 1271 361 1325Q514 1376 613 1393Q708 1410 885 1439Q912 1443 938 1436Q938 1436 827 1402Q880 1389 946 1404Q939 1386 938 1385Q938 1383 927 1363Q939 1364 951 1375Q964 1388 972 1389Q972 1390 944 1323Q942 1319 911 1255Q936 1255 979 1261Q1029 1267 1052 1268Q1026 1255 1025 1255Q974 1237 900 1212Q878 1205 869 1190Q864 1183 758 1027Q757 1027 751 1014Q759 1008 778 1012Q811 1018 871 1030Q935 1043 964 1049Q966 1049 1000 1054Q998 1032 1004 1025Q1009 1019 1033 1018Q1038 1029 1038 1030Q1039 1031 1042 1045Q1048 1036 1048 1035Q1050 1028 1057 981L1116 981Q1104 971 1084 963Q1063 955 1055 950Q1054 934 1054 925L1113 925Q1103 914 1084 907Q1061 898 1053 892Q1048 842 1048 840Q1047 780 1023 714Q984 608 935 529Q829 358 698 215Q645 158 583 113Q549 88 533 89Q531 90 506 77M506 525Q452 407 391 359Q375 347 362 339Q361 339 341 339Q386 419 506 525Z"  horiz-adv-x="1074" vert-adv-y="2048"  />

      
      <glyph glyph-name="uni34" unicode="&#x34;" d="M468 1151Q467 1152 465 1153Q463 1155 463 1156Q321 1015 225 857Q224 857 218 839Q290 922 386 1043Q391 1050 468 1151M643 273L559-51Q554-12 558 50Q564 135 564 153Q554 131 554 129Q546 106 533 65Q518 19 511 0Q511-1 500-27Q496-4 505 57Q526 215 531 245Q539 288 555 357Q574 446 579 469Q585 497 605 610Q606 610 606 629Q580 625 579 625Q365 565 73 483Q22 468 0 472Q9 486 10 486Q22 493 60 514Q61 514 94 532Q80 533 70 535Q67 539 67 553Q67 564 58 567Q54 569 58 580Q59 583 68 608Q57 617 47 625Q50 635 51 636Q75 649 84 679Q85 681 100 711Q83 724 82 729Q80 735 89 751Q107 784 129 815Q236 969 410 1168Q512 1285 560 1327Q590 1352 638 1391Q663 1411 678 1413Q682 1413 698 1427Q705 1433 769 1488Q767 1474 750 1451Q748 1449 731 1426Q711 1400 709 1397Q707 1395 691 1371Q696 1365 706 1372Q718 1381 758 1411Q790 1435 810 1450Q834 1468 857 1476Q842 1458 814 1423Q814 1423 816 1421Q817 1420 818 1419Q904 1488 947 1523Q942 1506 914 1473Q908 1466 893 1449Q879 1433 872 1425Q869 1422 831 1375Q840 1374 851 1381Q863 1389 870 1389Q848 1365 823 1336Q829 1331 841 1342Q862 1360 895 1389Q940 1428 949 1436Q970 1454 985 1459Q988 1460 1018 1480Q1045 1499 1054 1501Q1053 1499 968 1409Q941 1380 880 1315Q791 1222 791 1222Q775 1204 749 1173Q717 1136 706 1124Q691 1106 663 1076Q632 1042 620 1028Q574 976 535 931Q479 866 458 828Q606 878 682 903Q691 935 693 939Q697 948 706 949Q716 952 720 937Q720 936 725 915Q729 918 737 942Q738 943 744 968Q746 969 769 976Q804 1030 804 1030Q804 1008 797 980Q786 940 786 934Q797 923 803 937Q806 941 808 950Q811 960 813 964Q822 985 826 988Q843 999 854 1037Q868 1082 874 1102Q878 1084 872 1032Q871 1028 864 966Q871 974 878 996Q885 1016 895 1024Q905 1013 910 1007L932 1007Q935 982 936 965Q956 966 1007 976Q1051 984 1077 983Q1054 974 1052 973Q1036 968 1003 957Q970 947 954 941Q942 937 929 914Q918 895 923 883Q928 883 960 884Q984 886 1001 886Q988 877 955 868Q926 860 914 848Q914 847 913 839Q926 835 946 839Q973 844 979 844Q984 844 1053 852Q1044 842 1025 836Q1005 829 998 822Q1074 830 1138 837Q1118 826 1077 812Q1034 797 1015 787Q1049 792 1118 801Q1186 810 1220 814Q1221 813 1221 810Q1056 759 885 707Q871 644 848 522Q824 398 811 338Q772 158 721-27Q725 10 731 84Q738 159 742 196Q740 196 738 196Q704 76 698 56Q672-38 658-80Q653-31 660 79Q649 61 642 31Q634-5 628-19Q627-12 636 130Q636 141 649 273L643 273Z"  horiz-adv-x="1132" vert-adv-y="2048"  />

      
      <glyph glyph-name="uni35" unicode="&#x35;" d="M303 72Q325 86 328 93Q331 100 325 123Q312 93 303 72M461 783Q370 751 332 737Q331 736 324 719Q407 754 467 779L461 783M584 1260Q559 1263 516 1251Q479 1240 452 1229Q406 1211 393 1196Q587 1262 584 1260M702 252Q695 257 698 255Q684 243 684 242Q664 224 606 167Q558 121 529 93Q517 81 513 79Q499 74 466 41Q453 29 444 24Q454 44 478 78Q504 116 514 132Q500 124 467 99Q438 77 419 67Q441 97 443 100Q463 127 463 137Q450 123 423 95Q422 96 420 98Q430 120 431 121Q422 128 361 83Q348 73 338 50Q327 23 318 13Q318 20 317 31Q316 43 316 48Q289 43 276 16Q270 5 216-100Q197-60 202 27Q187 11 186 10Q181 0 147-62Q137-44 140-15Q143 21 141 33Q127 19 126 18Q129 21 78-62Q78-63 62-86Q63-60 72-25Q84 21 85 31Q78 26 58-7Q53-15 45-28Q35-46 32-50Q32-50 8-88Q1-86 1-73Q1-63 3-55Q54 136 97 215Q119 256 158 328Q201 410 219 442Q227 458 235 465Q240 471 251 468Q259 466 259 458Q259 441 255 426Q249 396 249 387Q279 435 280 437Q299 467 313 485Q324 501 337 496Q338 496 361 476Q373 493 374 494Q396 517 409 485Q409 484 412 477Q438 493 447 491Q450 490 458 495Q467 502 471 503Q509 513 498 475Q494 461 465 369Q464 367 453 332Q474 349 474 350Q611 484 605 478Q680 550 766 670Q788 701 790 725Q794 778 743 779Q710 779 680 772Q644 764 350 675Q287 656 272 602Q270 594 244 532Q241 525 233 522Q244 586 254 637Q270 637 211 589Q211 591 205 625Q178 621 177 620Q175 620 144 620Q168 637 178 644Q184 662 176 700Q173 693 167 680Q161 667 158 660Q154 661 152 662L152 748Q136 726 136 726Q129 709 95 633Q89 649 92 676Q93 684 94 700Q95 715 95 723Q99 755 96 769Q71 704 58 671Q55 739 76 858Q78 871 119 1039Q111 1043 92 1038Q74 1034 63 1042Q73 1056 101 1068Q130 1082 141 1094Q131 1098 108 1094Q89 1090 78 1098Q84 1111 103 1121Q126 1131 132 1138Q108 1145 102 1146Q108 1160 109 1160Q156 1183 153 1182Q137 1184 96 1172Q59 1161 34 1169Q48 1185 49 1186Q57 1190 111 1215Q105 1220 104 1220Q79 1220 75 1227Q68 1239 97 1251Q159 1278 196 1291Q449 1383 689 1439Q733 1450 872 1471Q897 1475 1004 1487Q1015 1488 1025 1481Q994 1468 988 1466Q997 1465 1009 1464Q1023 1463 1028 1463Q1010 1451 1002 1446Q1002 1445 1003 1442Q1068 1448 1096 1451Q1078 1437 1044 1425Q996 1408 988 1404Q998 1399 1001 1398Q1000 1394 1000 1394Q988 1389 837 1329Q824 1323 816 1317Q814 1317 931 1327Q1006 1334 1044 1338Q1032 1326 1009 1318Q977 1307 970 1303Q969 1304 993 1295Q738 1200 716 1192Q697 1186 441 1102Q438 1091 422 1035Q411 993 403 965Q423 967 424 967Q694 1046 685 1043Q766 1065 840 1063Q901 1061 939 1026Q960 1006 994 969Q1000 962 1015 941Q1028 923 1038 914Q1048 904 1056 876Q1083 775 1053 670Q1032 594 997 539Q902 387 868 345Q851 325 834 315Q841 330 855 362Q851 366 848 365Q847 364 845 363Q843 361 843 360Q841 359 835 353Q708 201 668 152Q666 150 632 107Q630 109 626 112L702 252Z"  horiz-adv-x="1095" vert-adv-y="2048"  />

      
      <glyph glyph-name="uni36" unicode="&#x36;" d="M231 767Q205 747 211 712Q228 736 231 767M316 360Q308 374 308 375Q292 417 289 428Q288 431 288 473Q278 457 278 456Q277 451 275 442Q273 432 272 428Q263 392 285 356Q312 313 365 293Q382 286 408 294Q496 321 543 349Q547 351 556 355L561 353Q549 337 518 318Q515 315 464 287Q489 284 520 297Q583 324 618 373Q724 521 757 697Q771 777 742 833Q739 839 736 850Q732 863 730 867Q711 917 687 940Q686 941 675 956Q683 974 699 964Q717 954 746 931Q770 913 772 912Q763 938 757 956Q763 953 771 949Q780 945 783 944Q784 946 786 952Q788 957 789 961Q805 948 806 948Q807 946 821 936Q824 947 816 962Q809 979 810 989Q829 975 829 975Q902 893 926 864Q946 839 957 808Q1022 638 1008 507Q983 274 830 125Q817 112 803 104Q814 122 850 166Q881 204 894 230Q889 233 880 224Q753 105 757 108Q710 66 632 34Q581 14 569 7Q546-4 513 0Q338 23 350 21Q333 23 305 30Q271 37 259 39Q224 46 221 45Q219 45 184 61Q186 50 196 35Q209 14 213 7Q186 26 185 27Q87 123 37 211Q4 269-2 359Q-10 489 42 647Q103 833 191 960Q191 960 222 1012Q229 1025 236 1032Q232 1019 209 969Q192 931 188 904Q203 925 204 926Q327 1107 333 1115Q452 1278 627 1380Q643 1390 669 1406Q704 1428 712 1433Q714 1434 754 1457Q750 1442 735 1431Q719 1419 689 1397Q658 1373 643 1363Q597 1328 583 1303Q596 1310 596 1311Q744 1402 749 1405Q769 1417 782 1415Q785 1414 801 1423Q822 1434 834 1436Q812 1415 811 1414Q804 1408 781 1388Q762 1373 755 1362Q772 1368 773 1369Q788 1376 819 1393Q850 1408 865 1416Q866 1417 896 1429Q891 1423 883 1412Q877 1404 873 1399Q879 1397 898 1401Q912 1405 922 1396Q918 1388 905 1382Q890 1376 885 1371Q892 1370 923 1380Q946 1386 964 1376Q939 1356 939 1356Q938 1356 941 1341Q838 1292 673 1127Q706 1141 752 1173Q816 1216 829 1224Q832 1216 821 1205Q795 1181 681 1076Q639 1037 572 953Q465 820 410 688Q413 696 368 605Q323 515 317 446Q316 431 318 403Q318 400 323 361Q318 360 316 360Z"  horiz-adv-x="1014" vert-adv-y="2048"  />

      
      <glyph glyph-name="uni37" unicode="&#x37;" d="M993 1312Q992 1313 990 1315Q989 1317 988 1318Q970 1307 970 1306Q952 1275 953 1255Q998 1320 993 1312M296 420Q356 517 362 526Q381 556 427 629Q468 694 491 731Q492 732 499 749Q348 582 296 420M337 1000Q339 988 347 952Q352 923 356 906Q355 905 353 904Q352 904 351 903Q354 899 321 941Q325 916 330 874Q336 830 339 812Q338 811 336 811Q335 810 334 810Q330 815 314 837L314 782Q311 784 304 789Q298 793 294 797Q294 789 295 776Q296 762 296 757Q285 756 282 756Q282 751 285 716Q274 722 263 738Q250 756 243 762Q239 749 242 730Q246 704 245 697Q239 704 231 715Q221 727 216 733L216 663Q203 672 189 681Q185 673 181 663Q166 685 160 694Q159 694 158 694Q157 694 156 693Q157 687 163 643Q154 656 128 718Q129 716 100 795Q97 803 72 869Q66 871 49 866Q35 861 27 869Q24 881 35 890Q50 901 52 905Q49 907 29 916Q44 930 45 931Q51 938 51 942Q49 948 41 951Q39 951 16 954Q32 971 41 981L0 981Q0 994 13 1003Q30 1015 32 1020Q31 1029 28 1047Q25 1067 24 1077Q30 1081 47 1093Q62 1104 70 1110Q65 1115 56 1124Q75 1139 112 1155Q156 1174 170 1183Q171 1187 170 1201Q170 1213 172 1219Q176 1239 202 1242Q195 1244 225 1210Q232 1208 261 1220Q297 1234 559 1342Q592 1356 603 1359Q641 1372 657 1371Q658 1371 709 1384Q753 1396 767 1390Q769 1389 791 1393Q808 1396 870 1409Q919 1418 949 1424Q949 1424 957 1422Q949 1412 929 1399Q906 1385 897 1377Q911 1376 934 1382Q958 1388 969 1388Q972 1394 959 1367Q978 1372 1008 1379Q1046 1387 1058 1390Q1046 1376 1020 1363Q993 1349 984 1340Q994 1334 1009 1341Q1024 1349 1034 1344Q1014 1333 984 1274Q879 1072 842 997Q795 903 636 619Q493 363 378 124Q362 91 354 86Q339 91 344 107Q344 106 369 185Q375 204 376 216Q369 208 333 136Q290 52 290 51Q284 73 284 74Q290 110 295 126Q302 145 338 248Q344 267 346 275Q308 211 235 47Q227 53 226 66Q226 81 223 86Q219 79 209 63Q198 47 191 36Q196 64 212 114Q228 161 232 186Q223 172 137-2Q116 7 122 29Q134 71 149 122Q158 151 158 163Q141 133 139 129Q80 17 79 15Q67-7 55 0Q48 3 50 12Q51 25 51 27Q39 21 39 21Q31 19 26 23Q21 27 23 34Q28 54 35 75Q92 222 194 411Q309 625 464 855Q555 989 623 1090Q644 1121 657 1148Q662 1150 551 1100Q561 1104 444 1050Q439 1047 337 1000Z"  horiz-adv-x="1014" vert-adv-y="2048"  />

      
      <glyph glyph-name="uni38" unicode="&#x38;" d="M701 1153Q694 1229 665 1279Q644 1285 621 1278Q635 1257 701 1153M130 1189Q129 1189 127 1190Q125 1190 125 1190Q109 1150 109 1148Q102 1114 98 1073Q92 1013 108 934Q110 924 118 912Q123 905 130 909Q136 913 139 923Q140 925 137 933Q94 1047 128 1176Q129 1176 130 1189M79 441Q78 441 76 440Q74 440 72 440Q72 410 73 408Q73 395 76 383Q97 278 182 151Q188 141 197 137Q206 133 213 138Q222 145 220 153Q216 164 206 177Q113 295 84 422Q84 422 79 441M593 1280Q471 1294 383 1248Q366 1239 358 1229Q310 1172 291 1104Q278 1059 297 1015Q316 971 358 949Q401 926 429 941Q497 976 531 1007Q549 1024 553 1047Q564 1116 562 1161Q562 1164 562 1219Q578 1200 600 1139Q602 1133 629 1054Q652 1182 593 1280M629 1398Q675 1391 678 1390Q732 1372 780 1348Q706 1352 699 1352Q653 1353 620 1347Q629 1344 630 1344Q632 1331 656 1321Q684 1309 718 1295Q719 1294 736 1283Q713 1282 692 1280Q696 1269 696 1269Q723 1235 773 1139Q809 1070 785 990Q774 950 760 927Q658 759 485 711Q454 703 425 701Q402 699 387 684Q363 661 353 647Q303 578 290 486Q289 479 292 471Q343 589 370 613Q367 600 367 599Q363 585 358 575Q311 474 374 355Q395 316 434 310Q428 311 501 296Q521 292 542 305Q623 356 634 434Q650 548 651 573Q651 582 643 716L643 729Q654 715 666 689Q681 656 688 645Q690 660 676 758Q694 738 695 736Q696 735 708 715Q713 729 708 750Q703 778 703 786Q741 750 782 689Q778 740 747 806Q768 800 785 780Q837 722 878 644Q882 637 886 625Q941 447 881 298Q876 287 845 217Q792 102 672 14Q672 14 662 9Q668 24 668 25Q673 31 687 44Q699 56 706 64Q737 100 743 143Q722 122 719 119Q631 31 522 8Q446-8 369 1Q286 10 220 38Q139 74 83 145Q-30 288-3 479Q11 580 54 678Q57 685 114 791Q101 806 101 806Q48 855 22 932Q-4 1006 2 1066Q9 1129 29 1177Q109 1361 264 1454Q280 1463 289 1467Q290 1467 307 1466Q297 1456 281 1446Q261 1432 258 1429Q229 1406 215 1392Q192 1369 180 1338Q200 1354 201 1354Q264 1413 349 1462Q416 1500 503 1515Q507 1515 549 1512Q555 1512 581 1509Q656 1502 670 1500Q671 1500 692 1491Q611 1479 591 1470Q672 1456 688 1449Q674 1447 630 1442Q653 1431 654 1431Q692 1427 705 1419Q695 1414 667 1411Q642 1409 629 1398Z"  horiz-adv-x="930" vert-adv-y="2048"  />

      
      <glyph glyph-name="uni39" unicode="&#x39;" d="M276 1274Q262 1279 245 1259Q158 1154 144 1008Q142 994 149 977Q153 968 165 967Q174 965 178 977Q183 998 182 1012Q173 1126 238 1222Q240 1224 276 1274M357 893Q364 914 372 965Q380 1010 391 1035Q392 1014 392 1013Q392 1026 403 834Q404 821 430 690Q430 688 460 638Q458 636 442 616Q432 621 431 621Q388 658 380 661Q378 670 416 592Q411 580 400 581L381 584Q381 582 385 573Q388 566 391 559Q388 558 382 554Q374 549 371 547Q293 587 254 643Q256 622 287 575Q290 570 334 508Q316 504 315 504Q296 516 281 530Q228 583 186 627Q107 710 78 843Q41 1012 109 1183Q123 1218 134 1239Q162 1296 210 1328Q270 1368 355 1407Q355 1406 337 1380Q343 1366 360 1370Q429 1388 439 1390Q609 1420 742 1314Q849 1228 901 1109Q941 1019 919 898Q859 561 609 325Q474 197 314 98Q215 37 73 0Q72 0 50 1Q60 10 130 49Q154 62 209 92Q205 100 200 115Q128 81 122 79Q61 53 34 48Q154 134 174 155Q154 149 153 149Q51 119 40 116Q38 115 0 113Q-1 112 45 149Q42 146 88 182Q117 205 129 221Q113 216 80 206Q48 196 31 191L29 197Q67 222 68 223Q62 229 59 232Q68 240 69 240Q147 299 175 320Q190 331 202 338Q274 382 337 444Q468 572 509 626Q583 722 639 872Q644 884 654 938Q657 952 655 971Q632 867 552 765Q560 788 560 789Q602 890 612 986Q615 1016 613 1033Q607 1126 518 1164Q493 1175 466 1165Q462 1164 446 1157Q434 1152 426 1150Q390 1139 375 1100Q343 1016 350 935Q350 933 357 893M287 1Q292 12 314 29Q428 116 474 161Q495 181 519 177Q539 174 534 157Q530 144 520 130Q517 127 502 118Q369 39 320 11Q296-3 287 1Z"  horiz-adv-x="937" vert-adv-y="2048"  />

      
      <glyph glyph-name="uni3a" unicode="&#x3a;" d="M286 467Q297 470 317 475Q340 481 351 484Q337 466 330 456Q335 453 335 453Q343 455 379 466Q360 446 342 425Q341 425 355 415Q354 414 335 383Q367 376 367 377Q361 367 350 347Q338 328 332 316Q343 320 362 326L364 320Q320 254 284 224Q270 213 241 189Q212 166 198 154Q189 147 183 145Q164 137 153 146Q142 155 143 176Q143 176 145 185Q133 198 129 201L126 202Q119 199 91 188Q78 195 77 195Q51 208 49 211Q46 217 50 246Q28 251 25 262Q22 274 42 301Q18 296 16 296Q4 297 1 303Q-3 313 2 323Q4 328 18 341Q96 413 178 467Q234 505 331 524Q325 512 309 495Q291 478 286 467M286 1027Q297 1030 317 1035Q340 1041 351 1044Q337 1026 330 1016Q335 1013 335 1013Q343 1015 379 1026Q360 1006 342 985Q341 985 355 975Q354 974 335 943Q367 936 367 937Q361 927 350 907Q338 888 332 876Q343 880 362 886L364 880Q320 814 284 784Q270 773 241 749Q212 726 198 714Q189 707 183 705Q164 697 153 706Q142 715 143 736Q143 736 145 745Q133 758 129 761L126 762Q119 759 91 748Q78 755 77 755Q51 768 49 771Q46 777 50 806Q28 811 25 822Q22 834 42 861Q18 856 16 856Q4 857 1 863Q-3 873 2 883Q4 888 18 901Q96 973 178 1027Q234 1065 331 1084Q325 1072 309 1055Q291 1038 286 1027Z"  horiz-adv-x="422" vert-adv-y="2048"  />

      
      <glyph glyph-name="uni3b" unicode="&#x3b;" d="M286 804Q297 807 317 812Q340 818 351 821Q337 803 330 793Q335 790 335 790Q343 792 379 803Q360 783 342 762Q341 762 355 752Q354 751 335 720Q367 713 367 714Q361 704 350 684Q338 665 332 653Q343 657 362 663L364 657Q320 591 284 561Q270 550 241 526Q212 503 198 491Q189 484 183 482Q164 474 153 483Q142 492 143 513Q143 513 145 522Q133 535 129 538L126 539Q119 536 91 525Q78 532 77 532Q51 545 49 548Q46 554 50 583Q28 588 25 599Q22 611 42 638Q18 633 16 633Q4 634 1 640Q-3 650 2 660Q4 665 18 678Q96 750 178 804Q234 842 331 861Q325 849 309 832Q291 815 286 804M108-300Q107-296 104-287Q101-278 99-272Q96-275 66-297L55-275Q53-275 44-275Q36-274 31-274Q27-260 33-242Q41-217 42-210Q35-215 19-236Q6-253-10-258Q-10-257-13-251Q-16-246-18-242Q-29-251-29-251Q-43-266-53-263Q-67-258-59-235Q-53-216-48-205Q7-87 74-2Q111 45 214 174Q215 175 239 202Q242 195 236 184Q230 173 231 167Q239 169 251 181Q262 192 271 195Q274 186 266 169Q258 153 260 142Q273 152 292 167Q293 155 284 135Q274 114 273 101Q290 115 319 143Q348 172 365 185Q360 164 360 163Q354 149 344 127Q331 97 328 91Q324 81 327 71Q334 78 350 92Q366 107 377 116Q376 107 362 76Q360 73 343 39Q350 38 362 48Q364 49 377 63Q395 80 393 78Q394 79 412 96Q409 81 408 81Q315-87 257-153Q248-164 151-280Q129-306 108-300Z"  horiz-adv-x="422" vert-adv-y="2048"  />

      
      <glyph glyph-name="uni037E" unicode="&#x037E;" d="M286 804Q297 807 317 812Q340 818 351 821Q337 803 330 793Q335 790 335 790Q343 792 379 803Q360 783 342 762Q341 762 355 752Q354 751 335 720Q367 713 367 714Q361 704 350 684Q338 665 332 653Q343 657 362 663L364 657Q320 591 284 561Q270 550 241 526Q212 503 198 491Q189 484 183 482Q164 474 153 483Q142 492 143 513Q143 513 145 522Q133 535 129 538L126 539Q119 536 91 525Q78 532 77 532Q51 545 49 548Q46 554 50 583Q28 588 25 599Q22 611 42 638Q18 633 16 633Q4 634 1 640Q-3 650 2 660Q4 665 18 678Q96 750 178 804Q234 842 331 861Q325 849 309 832Q291 815 286 804M108-300Q107-296 104-287Q101-278 99-272Q96-275 66-297L55-275Q53-275 44-275Q36-274 31-274Q27-260 33-242Q41-217 42-210Q35-215 19-236Q6-253-10-258Q-10-257-13-251Q-16-246-18-242Q-29-251-29-251Q-43-266-53-263Q-67-258-59-235Q-53-216-48-205Q7-87 74-2Q111 45 214 174Q215 175 239 202Q242 195 236 184Q230 173 231 167Q239 169 251 181Q262 192 271 195Q274 186 266 169Q258 153 260 142Q273 152 292 167Q293 155 284 135Q274 114 273 101Q290 115 319 143Q348 172 365 185Q360 164 360 163Q354 149 344 127Q331 97 328 91Q324 81 327 71Q334 78 350 92Q366 107 377 116Q376 107 362 76Q360 73 343 39Q350 38 362 48Q364 49 377 63Q395 80 393 78Q394 79 412 96Q409 81 408 81Q315-87 257-153Q248-164 151-280Q129-306 108-300Z"  horiz-adv-x="422" vert-adv-y="2048"  />

      
      <glyph glyph-name="uni3c" unicode="&#x3c;" d="M96 632Q89 630 74 616Q61 603 47 603Q80 653 80 653Q72 656 60 649Q48 643 40 646Q40 646 55 675Q40 695 40 696Q35 702 23 717Q12 730 6 738Q-2 749 0 766Q4 796 4 795Q4 797 9 800Q14 803 18 803Q20 803 40 796Q65 816 63 849Q80 855 83 856Q80 860 73 874Q67 885 63 891Q67 895 67 895Q101 876 101 876Q117 892 120 896Q257 1043 269 1056Q301 1089 374 1148Q395 1165 523 1266Q532 1273 541 1275Q536 1263 523 1248Q506 1229 501 1219Q521 1229 522 1230Q605 1293 634 1313Q631 1309 594 1266Q592 1263 552 1215Q563 1216 579 1230Q583 1233 591 1240Q599 1248 603 1251Q615 1262 626 1266Q622 1258 584 1205Q557 1168 545 1146Q610 1189 715 1272Q719 1269 719 1269Q719 1268 718 1266Q607 1136 572 1094Q429 928 252 751Q252 750 249 745Q264 730 265 729Q532 504 550 488Q567 473 740 299Q740 298 742 290Q715 313 680 317Q679 317 658 327Q651 330 616 347Q621 337 645 310Q655 300 675 279Q696 258 704 247Q698 248 670 264Q643 280 634 281Q674 223 668 231Q657 233 634 245Q613 256 597 259Q676 151 677 150Q667 151 667 151Q519 218 434 302Q418 318 270 457Q170 551 111 618Q110 619 96 632Z"  horiz-adv-x="751" vert-adv-y="2048"  />

      
      <glyph glyph-name="uni3d" unicode="&#x3d;" d="M825 875Q813 868 789 856Q766 843 754 836Q754 836 754 834Q755 833 755 833Q792 836 810 837Q797 825 771 809Q745 793 734 781Q745 784 762 789Q779 794 786 796Q786 795 787 794Q788 793 788 792Q780 785 779 785Q630 699 608 687Q472 614 206 509Q172 495 117 490Q141 520 138 516Q127 515 103 508Q81 502 67 503Q71 516 87 528Q105 542 109 550Q105 551 75 542Q56 537 52 539Q47 541 39 559Q35 566 25 567Q10 569 11 580Q12 589 21 597Q42 618 41 616Q19 611 18 611Q0 608-3 621Q-5 631 4 639Q19 651 37 660Q216 751 290 787Q453 867 755 937Q756 937 774 937Q771 935 719 907Q720 906 720 905Q721 903 721 902Q738 906 771 914Q804 921 821 925Q803 910 770 892Q726 871 712 861Q729 862 770 870Q804 876 825 875M689 1116Q674 1104 643 1092Q607 1077 592 1068Q733 1073 738 1073Q723 1066 705 1058Q711 1055 728 1050Q708 1041 669 1023Q669 1023 670 1021Q670 1020 670 1019Q677 1020 695 1022Q711 1023 720 1024Q723 1023 726 1015Q729 1009 736 1010Q747 1013 788 1022Q799 1024 807 1021Q790 1011 790 1011Q573 916 553 909Q304 813 119 766Q102 761 91 761Q79 762 77 770Q73 781 62 797Q49 815 45 823Q45 824 44 844Q25 841 24 841Q-7 841 7 869Q7 870 16 878Q6 887 6 887Q-12 906 7 919Q21 929 45 939Q147 986 309 1040Q433 1081 559 1097Q567 1098 689 1116Z"  horiz-adv-x="830" vert-adv-y="2048"  />

      
      <glyph glyph-name="uni3e" unicode="&#x3e;" d="M646 632Q653 630 668 616Q681 603 695 603Q662 653 661 653Q670 656 682 649Q694 643 702 646Q702 646 686 675Q701 695 702 696Q707 702 719 717Q730 730 735 738Q744 749 742 766Q738 796 738 795Q738 797 733 800Q728 803 724 803Q722 803 702 796Q677 816 679 849Q662 855 659 856Q661 860 669 874Q675 885 678 891L675 895Q641 876 640 876Q625 892 622 896Q485 1043 473 1056Q441 1089 368 1148Q347 1165 219 1266Q210 1273 201 1275Q205 1263 219 1248Q235 1229 241 1219Q221 1229 220 1230Q136 1293 108 1313Q110 1309 148 1266Q150 1263 190 1215Q179 1216 163 1230Q159 1233 151 1240Q143 1248 139 1251Q126 1262 116 1266Q120 1258 158 1205Q185 1168 197 1146Q132 1189 27 1272Q23 1269 23 1269Q22 1268 24 1266Q134 1136 170 1094Q313 928 490 751Q490 750 493 745Q478 730 477 729Q209 504 192 488Q175 473 2 299Q2 298 0 290Q27 313 62 317Q63 317 84 327Q90 330 126 347Q121 337 96 310Q87 300 67 279Q46 258 38 247Q44 248 72 264Q98 280 108 281Q68 223 73 231Q84 233 108 245Q129 256 145 259Q65 151 65 150Q75 151 75 151Q223 218 308 302Q324 318 472 457Q572 551 631 618Q631 619 646 632Z"  horiz-adv-x="751" vert-adv-y="2048"  />

      
      <glyph glyph-name="uni3f" unicode="&#x3f;" d="M292 811Q359 871 384 953Q341 913 305 848Q292 824 292 811M405 259Q397 257 391 270Q375 304 351 358Q349 361 328 411Q321 389 324 363Q329 335 332 317Q339 281 338 267Q325 286 324 287Q310 318 277 393Q265 420 256 431L256 348Q250 355 240 380Q233 399 219 404Q214 386 212 379Q209 382 209 382Q209 419 182 469Q174 483 170 524Q163 607 182 703Q207 827 245 914Q257 943 272 952Q269 937 256 906Q244 879 243 861Q251 868 251 868Q315 972 435 1055Q471 1080 497 1100Q510 1110 522 1122Q532 1133 536 1144Q545 1166 535 1182Q526 1198 503 1200Q465 1204 437 1198Q347 1181 284 1121Q199 1038 158 946Q158 946 151 939Q147 953 147 954Q150 973 167 1058Q155 1046 154 1046Q132 1013 111 982Q102 969 91 973Q84 988 91 1010Q102 1045 103 1048Q92 1042 79 1028Q64 1012 57 1007Q52 1029 64 1055Q85 1105 84 1101Q75 1097 58 1078Q57 1076 39 1054Q31 1044 15 1023Q16 1049 31 1084Q48 1125 51 1139Q21 1105 0 1082Q7 1110 8 1111Q32 1159 53 1196Q59 1207 70 1227Q83 1248 88 1257Q136 1342 235 1404Q270 1426 322 1439Q358 1448 363 1450Q476 1489 595 1442Q636 1426 673 1405Q794 1336 814 1201Q828 1109 769 1032Q763 1025 747 1002Q734 984 725 973Q695 936 671 914Q643 888 602 857Q555 822 527 777Q521 767 512 762Q515 777 516 778Q521 789 529 805Q541 826 543 832Q549 842 547 852Q536 843 536 843Q447 752 442 635Q440 606 436 558Q430 499 429 482Q427 457 435 423Q441 402 474 254L472 252Q471 253 470 254Q463 262 461 265Q433 315 418 343Q405 366 398 382Q378 430 370 443Q378 383 379 379Q377 389 401 278Q401 277 404 258L405 259M404 258Q400 266 439 248Q409 210 411 212Q415 212 424 211Q432 210 437 209Q439 213 426 182Q432 180 432 180Q443 185 484 205Q481 197 464 174Q463 173 445 148L468 148Q456 124 455 121Q453 119 439 95Q439 95 450 87Q448 82 443 71Q438 61 435 54Q447 47 450 45Q409-16 406-21Q401-28 360-74Q352-82 348-86Q338-93 330-92Q323-91 311-79Q293-91 292-92Q276-101 269-100Q263-99 248-84Q229-65 229-62Q228-60 218-59Q201-56 198-52Q195-47 199-31Q199-31 203-19Q179-34 176-35Q170-38 166-34Q161-27 163-22Q166-15 175-3Q178 1 206 35Q204 35 178 26Q164 22 155 33Q147 43 155 55Q165 69 169 73Q253 154 280 179Q329 225 386 240Q406 245 405 259L404 258Z"  horiz-adv-x="827" vert-adv-y="2048"  />

      
      <glyph glyph-name="uni40" unicode="&#x40;" d="M480 615Q434 551 422 495Q432 498 454 504Q474 509 485 512Q484 520 484 563Q483 594 480 615M290 0Q302 11 303 11Q303 12 311 17Q311 23 301 23Q190 31 109 107Q30 181 8 290Q-10 379 3 500Q17 633 71 744Q139 883 248 976Q315 1033 412 1070Q429 1076 458 1074Q444 1063 443 1063Q388 1040 328 991Q314 979 308 964Q335 983 335 983Q402 1033 483 1045Q514 1049 542 1038Q540 1029 517 1022Q445 1003 374 937Q366 930 364 921Q380 929 381 930Q388 934 415 953Q436 967 449 976Q477 994 495 990Q420 928 413 922Q388 902 364 881Q318 841 286 783Q236 696 190 571Q172 522 167 445Q166 419 165 379Q164 326 164 312Q163 288 177 265Q202 221 244 187Q330 118 422 189Q447 208 492 261Q510 283 505 311Q504 317 495 390Q272 364 282 363Q219 251 224 260Q235 351 260 413Q327 584 368 679Q379 705 486 900Q498 897 511 895Q515 900 515 900Q516 903 517 911Q519 927 532 927Q544 928 547 911Q547 910 550 904Q554 902 563 906Q572 911 578 905Q590 895 592 882Q594 867 602 796Q621 638 623 622Q623 620 639 549Q678 375 612 190Q596 145 570 111Q527 56 469 40Q402 21 341 6Q339 5 290 0M689 942Q670 984 674 976Q692 977 693 977Q706 978 706 978Q718 997 742 978Q770 955 787 932Q836 868 858 769Q895 605 854 454Q829 364 771 268Q761 251 744 240Q745 245 748 255Q752 266 754 273Q736 258 720 245Q726 263 746 322Q739 316 719 284Q703 260 685 251Q683 262 683 262Q707 320 712 423Q711 419 721 587Q733 783 647 928Q642 937 642 937Q641 954 644 956Q649 962 662 958Q665 957 689 942Z"  horiz-adv-x="902" vert-adv-y="2048"  />

      
      <glyph glyph-name="uni41" unicode="&#x41;" d="M565 935Q547 906 488 753Q430 600 426 573Q524 605 531 608Q539 610 639 641Q597 807 565 935M891 705Q930 713 997 728Q981 714 949 700Q912 684 898 675Q923 598 1018 134Q1010 145 973 231Q935 319 929 329Q929 316 950 208Q971 100 973 84Q970 90 963 101Q955 114 951 122Q954 70 956 47Q939 71 919 119Q898 170 884 191Q888 175 895 144Q903 112 906 96Q903 94 902 94Q891 107 891 108Q892 105 856 178Q845 201 834 211L897-25Q859 49 712 415Q730 426 762 445Q751 449 732 443Q713 437 702 441Q718 453 751 469Q787 488 804 499Q776 492 774 492Q680 461 607 428Q527 392 338 313Q314 303 305 282Q296 262 237 128Q228 107 219 97Q221 107 223 128Q207 104 185 59Q160 7 146-15Q148 6 159 43Q169 78 171 98Q156 89 145 65Q133 37 125 29Q125 44 135 72Q144 101 144 119Q136 107 120 72Q107 45 94 31Q103 70 109 96Q86 63 57 7Q24-58 10-80Q15-60 15-59Q60 83 56 71Q67 108 63 121Q54 105 39 65Q26 30 12 13Q12 13 4 12Q-3 20 3 45Q23 122 34 155Q42 178 112 375Q111 372 122 403Q93 405 89 405Q82 407 80 414Q79 422 86 426Q102 436 118 442Q144 453 159 484Q175 518 223 651Q287 825 345 953Q349 963 468 1243Q480 1272 493 1291Q487 1268 475 1223Q477 1222 480 1221Q504 1263 505 1266Q509 1273 504 1297Q494 1351 490 1399Q502 1384 514 1355Q529 1319 535 1308Q547 1316 543 1331Q532 1380 529 1394Q526 1407 529 1419Q552 1380 551 1382Q553 1390 559 1412Q572 1402 573 1401Q583 1374 588 1368Q590 1381 590 1382Q590 1385 589 1393Q589 1400 589 1403Q590 1423 603 1425Q619 1427 624 1410Q625 1405 628 1396Q631 1386 632 1382Q634 1377 639 1356Q644 1340 647 1331Q647 1330 654 1314Q665 1329 678 1353Q695 1386 698 1390Q726 1437 745 1459Q742 1443 742 1442Q699 1324 679 1271Q670 1247 677 1226Q679 1219 686 1196Q691 1178 695 1168Q695 1166 715 1136Q715 1151 707 1185Q701 1214 706 1234Q717 1216 724 1187Q734 1150 736 1142Q734 1148 767 1055Q785 1004 798 967Q804 952 814 925Q825 896 830 883Q850 828 861 796Q864 789 891 705M275 893Q251 767 161 555Q160 554 150 543Q132 547 134 565Q137 586 141 604Q171 715 220 798Q223 803 275 893M259 994Q254 975 254 974Q211 841 148 693Q144 683 138 666Q131 647 128 639Q123 629 119 624Q112 618 106 621Q95 627 96 634Q96 652 102 669Q135 768 185 866Q190 875 254 995Q255 995 259 994Z"  horiz-adv-x="1047" vert-adv-y="2048"  />

      
      <glyph glyph-name="uni42" unicode="&#x42;" d="M143 12Q180 34 167 68Q151 57 151 56Q150 51 143 12M212 1259Q216 1274 225 1311Q233 1345 238 1364Q226 1369 208 1376Q208 1291 208 1266Q208 1265 212 1259M410 885Q462 894 539 930Q616 965 644 993Q578 1076 518 1112Q511 1117 494 1126Q479 1134 471 1139Q470 1140 450 1158Q473 1154 506 1148Q543 1141 556 1139Q543 1155 484 1183Q417 1215 405 1218Q400 1166 390 1072Q380 971 376 926Q391 928 392 928Q395 929 445 949Q464 957 474 945Q467 929 443 914Q417 897 410 885M272 248Q306 273 308 275Q367 324 449 373Q480 392 524 422Q578 459 614 509Q628 528 631 543Q643 595 591 618Q461 677 328 696Q256 707 212 700Q316 678 334 670Q328 669 315 668Q301 667 292 666Q317 655 334 647Q311 464 309 449Q306 435 272 248M156-36Q170-23 189-5Q163-1 139-18Q132-50 126-80Q112-25 113-22Q113-17 116 31Q116 35 116 97Q108 84 103 64Q97 41 93 33Q90 47 92 70Q93 93 90 104Q78 103 62 102Q91 125 91 124Q116 258 103 327Q91 280 69 196Q66 196 64 197L64 291L60 291Q61 295 46 227Q43 235 42 293Q42 314 44 354Q45 365 47 386Q49 408 50 418Q50 429 51 448Q52 469 53 479Q54 497 58 543Q61 586 63 604Q63 602 70 668Q69 658 77 730Q63 733 39 725Q14 717 0 718Q15 733 16 734Q52 759 64 765Q85 777 90 805Q96 847 114 946Q122 989 145 1115Q165 1221 176 1284Q178 1298 182 1321Q186 1348 187 1358Q188 1361 195 1394Q202 1393 222 1392Q237 1390 246 1389Q247 1392 248 1394Q234 1403 227 1407Q231 1412 231 1412Q244 1411 286 1406Q292 1417 301 1435Q312 1457 316 1464Q319 1463 321 1463L321 1397Q342 1391 369 1383Q383 1416 385 1418Q391 1432 402 1427Q415 1423 414 1416Q412 1406 423 1395Q435 1383 435 1374Q435 1368 455 1363Q559 1339 724 1276Q808 1244 859 1198Q911 1152 934 1090Q964 1009 921 931Q900 892 856 855Q809 815 741 783Q735 780 725 775Q715 770 711 768Q709 763 710 762Q710 761 713 761Q759 751 751 753Q825 735 882 706Q954 669 971 591Q981 547 963 496Q937 427 874 372Q852 353 816 330Q786 311 728 274Q669 237 641 218Q491 122 308 35Q288 25 253 7Q213-15 198-22Q196-23 156-36Z"  horiz-adv-x="995" vert-adv-y="2048"  />

      
      <glyph glyph-name="uni43" unicode="&#x43;" d="M664 390Q756 464 864 604Q862 583 850 546Q838 507 835 488Q841 496 856 514Q870 533 880 546Q875 521 874 520Q823 410 813 391Q769 311 703 201Q603 34 403 1Q297-16 201 18Q22 80 2 268Q-5 332 7 469Q17 580 38 675Q72 827 139 961Q154 990 150 1002Q149 1006 156 1018Q167 1036 177 1048Q256 1151 278 1179Q364 1285 503 1392Q547 1426 586 1438Q586 1421 585 1421Q582 1417 552 1392Q530 1374 520 1360Q543 1368 544 1369Q635 1408 719 1402Q811 1395 871 1332Q907 1296 914 1253Q919 1228 914 1210Q889 1120 851 1070Q846 1064 838 1062Q863 1126 864 1131Q878 1185 866 1210Q850 1175 848 1173Q840 1158 828 1138Q827 1136 801 1098Q803 1125 804 1126Q809 1180 809 1180Q811 1204 787 1211Q743 1223 723 1225Q582 1237 492 1140Q491 1140 487 1129Q515 1148 516 1149Q579 1197 666 1215Q695 1221 720 1210Q720 1210 736 1196Q716 1192 715 1191Q653 1182 657 1183Q574 1166 523 1095Q453 1001 408 904Q318 711 277 509Q257 411 273 334Q285 278 317 243Q336 224 360 233Q427 258 457 281Q565 366 596 395Q605 403 715 513Q709 487 692 450Q669 403 664 390M329 542Q320 595 336 663Q354 740 387 796Q399 816 465 920Q465 921 473 927L475 924Q413 759 405 739Q350 607 338 554Q338 554 329 542M152 1089Q144 1104 158 1133Q207 1237 286 1309Q327 1347 361 1367Q353 1354 353 1353Q344 1340 293 1270Q256 1220 233 1188Q235 1190 175 1103Q163 1086 152 1089Z"  horiz-adv-x="944" vert-adv-y="2048"  />

      
      <glyph glyph-name="uni44" unicode="&#x44;" d="M220 848Q208 828 207 820Q206 811 213 790Q222 841 220 848M180 137Q166 127 165 127Q144 51 137 5Q176 25 176 55Q176 61 180 137M92 139Q120 153 127 162Q133 170 136 194Q140 225 152 334L152 354Q151 354 149 354Q147 354 146 354Q124 266 92 139M349 186Q348 188 346 193Q266 165 250 159Q241 156 237 146Q220 100 216 68Q291 135 349 186M149 697Q163 762 206 1043Q186 1004 165 874Q143 744 149 697M634 489Q654 505 654 506Q731 580 797 722Q821 775 790 823Q791 822 786 830Q723 940 610 995Q461 1067 409 1104Q408 1104 400 1105Q373 849 371 829Q359 738 328 557Q325 537 278 279Q547 422 665 540Q659 532 648 516Q636 500 630 493L634 489M268 1290Q284 1290 288 1316Q257 1340 210 1375Q220 1375 257 1361Q261 1359 300 1342Q322 1353 327 1355Q320 1370 292 1385Q264 1399 257 1417L286 1416Q365 1405 477 1362Q494 1356 557 1332Q544 1360 546 1357Q559 1361 584 1345Q688 1278 751 1237Q837 1180 908 1114Q1023 1006 1032 859Q1044 673 983 542Q940 449 868 357Q734 183 542 98Q526 91 221-56Q199-66 182-70Q204-48 258-2Q309 40 334 66Q302 52 300 51Q211 8 218 11Q186-3 181-29Q167-14 168-15Q125-37 120-50Q107-45 106-44Q104-44 99-44Q94-45 91-44Q116-26 117 21Q117 30 127 125Q86 122 80 86Q79 81 65 16Q56 35 56 35Q56 84 58 116Q66 251 67 280Q55 241 35 156Q16 75 2 32Q0 59 0 61Q0 69 1 92Q2 120 3 126Q32 424 32 415Q57 704 126 1012Q164 1180 173 1228Q176 1241 192 1301Q194 1307 198 1319Q207 1339 227 1341Q248 1342 253 1313Q256 1298 269 1289Q256 1289 255 1280Q251 1250 262 1238Q275 1272 273 1264Q277 1278 268 1290Z"  horiz-adv-x="1060" vert-adv-y="2048"  />

      
      <glyph glyph-name="uni45" unicode="&#x45;" d="M183 99Q152 102 144 96Q144 95 137 77Q164 82 183 99M73 48Q69 118 67 142Q67 142 61 147Q53 143 53 143Q33 92 22 23Q42 33 73 48M408 1012Q419 1009 428 1007Q430 984 421 944Q411 900 410 880Q536 909 545 911Q590 921 678 937Q690 940 821 963Q811 953 791 944Q768 934 760 927Q775 929 815 934Q847 939 866 941Q844 926 797 904Q750 882 728 868Q829 882 879 889Q864 876 829 859Q795 841 779 828Q827 834 895 841Q892 833 892 833Q877 827 765 775Q689 740 636 723Q507 682 412 657Q358 644 350 594Q346 572 310 415Q306 397 299 381Q299 391 300 410Q302 429 302 439Q287 414 261 323Q285 327 286 328Q423 365 462 376Q537 397 710 425Q816 442 927 459Q956 463 979 460Q960 450 959 450Q918 437 852 416Q767 389 746 383Q730 378 719 371Q725 369 810 379Q895 388 902 388Q896 383 849 364Q858 368 786 343Q751 331 729 320Q766 320 842 328Q916 335 955 336Q943 328 859 295Q794 269 762 254Q764 253 854 265Q937 276 946 276Q931 268 931 268Q587 142 545 128Q483 106 264 46Q198 27 93 3Q40-9 18 5Q15 0 5-20Q2-19 0-19L0 17Q8 202 8 204Q9 328 58 563Q60 576 82 689Q85 707 73 718Q56 734 77 745Q92 753 98 785Q129 964 134 990Q140 1019 176 1172Q184 1207 169 1223Q189 1247 190 1256Q192 1265 184 1295Q197 1307 202 1336Q208 1371 216 1384Q228 1370 228 1369Q229 1364 233 1324Q256 1324 257 1325Q265 1329 271 1345Q274 1352 277 1364Q280 1379 282 1383Q282 1384 291 1401Q302 1390 302 1369Q302 1344 308 1335Q319 1347 319 1348Q323 1360 329 1383Q336 1408 339 1418Q344 1434 351 1449Q351 1449 364 1455Q371 1441 372 1355Q391 1347 395 1363Q397 1371 401 1386Q404 1402 406 1410Q407 1411 417 1434Q434 1424 434 1402Q435 1373 440 1365Q599 1386 611 1387Q698 1396 787 1400Q932 1406 962 1402Q966 1404 937 1390Q976 1388 983 1387L984 1383Q940 1370 853 1343Q878 1337 924 1341Q974 1346 999 1343Q967 1329 897 1305Q830 1282 794 1265Q806 1263 907 1271Q1008 1278 1013 1278Q1002 1270 918 1238Q847 1211 826 1197Q831 1197 853 1200Q871 1202 883 1203Q871 1193 870 1193Q852 1187 761 1144Q623 1078 473 1037Q468 1035 407 1018Q407 1016 408 1012Z"  horiz-adv-x="1050" vert-adv-y="2048"  />

      
      <glyph glyph-name="uni46" unicode="&#x46;" d="M381 1211Q422 1209 456 1234Q384 1213 381 1211M310 1236Q394 1244 454 1269Q391 1266 310 1236M757 795Q556 707 539 700Q523 695 316 632Q211 75 191-30Q179 14 193 211Q184 186 184 185Q174 150 155 77Q136 6 126-30Q122-46 113-60Q108-23 115 51Q103 58 103 59Q101 65 101 81Q104 156 103 189Q100 176 92 152Q84 128 80 115L76 115Q74 151 74 156Q74 159 73 200Q72 199 58 174Q49 160 36 157Q37 179 39 218Q41 264 42 284Q31 258 21 207Q11 159 1 136Q1 225 1 230Q8 376 14 445Q28 594 40 671Q46 707 117 1099Q119 1112 119 1117Q121 1153 130 1174Q131 1175 133 1191Q123 1197 122 1198Q95 1218 121 1229Q143 1238 147 1269Q154 1321 157 1339Q160 1362 164 1376Q166 1383 176 1383Q185 1383 188 1376Q191 1368 192 1355Q193 1321 197 1309Q208 1338 207 1335Q217 1361 217 1363Q225 1378 242 1374Q254 1371 256 1354Q256 1353 254 1336Q250 1302 252 1284Q260 1303 260 1304Q263 1314 272 1345Q280 1371 285 1386Q290 1403 299 1416Q306 1428 313 1425Q328 1419 347 1426Q379 1439 379 1438Q395 1435 394 1417Q393 1394 390 1365Q386 1331 388 1322Q475 1348 660 1384Q869 1425 931 1429Q910 1421 792 1380Q793 1378 794 1374Q823 1378 880 1386Q937 1393 966 1397Q942 1380 895 1360Q842 1338 820 1324Q837 1326 901 1332Q950 1337 983 1341Q975 1332 912 1301Q843 1268 842 1267Q874 1268 944 1278Q1011 1288 1048 1288Q1017 1273 1015 1272Q851 1203 854 1204Q727 1147 505 1092Q482 1087 442 1077Q398 1066 380 1062Q350 976 359 914Q637 974 818 995Q747 970 707 955Q715 951 763 955Q796 957 818 955Q800 941 757 920Q713 899 690 883Q717 885 772 893Q824 901 854 903Q852 902 762 861Q748 855 716 841Q686 829 670 821Q590 784 584 780Q612 779 670 788Q726 796 757 795Z"  horiz-adv-x="950" vert-adv-y="2048"  />

      
      <glyph glyph-name="uni47" unicode="&#x47;" d="M291 961Q280 951 257 899Q239 858 239 833Q289 898 291 961M135 710Q149 726 158 758Q186 861 248 982Q249 983 256 1003Q175 877 135 756Q128 734 135 710M761 511Q775 520 832 594Q830 570 830 569Q830 567 826 543Q837 550 849 567Q862 586 870 593Q867 568 867 566Q872 566 872 567Q877 576 886 592Q897 610 901 618Q907 628 917 632Q906 593 905 591Q863 477 849 442Q827 390 769 260Q682 66 471 1Q266-61 106 90Q31 161 8 289Q-12 404 4 565Q19 709 64 830Q62 825 78 884Q133 1085 283 1247Q303 1268 402 1364Q421 1382 434 1384Q433 1380 407 1347Q404 1342 393 1330Q384 1319 379 1312Q378 1310 355 1274Q361 1273 375 1283Q499 1379 497 1378Q561 1423 641 1432Q733 1442 820 1401Q834 1395 851 1381Q930 1321 894 1226Q885 1201 871 1172Q871 1171 856 1155Q850 1163 852 1188Q858 1236 858 1235Q860 1260 836 1281Q834 1251 834 1249Q830 1221 826 1206Q822 1191 810 1194Q803 1196 800 1208Q799 1214 796 1228Q794 1241 792 1248Q791 1249 776 1267Q774 1263 769 1256Q765 1250 763 1246Q688 1246 612 1173Q567 1131 520 1067Q414 920 352 798Q278 652 260 492Q252 414 265 367Q274 338 289 314Q311 276 359 273Q430 269 475 304Q694 476 796 603Q796 603 808 622Q784 610 783 610Q762 599 627 526Q533 475 471 442Q458 434 447 433Q439 431 433 439Q427 447 432 455Q434 458 466 497Q452 496 451 495Q433 489 429 499Q425 509 432 523Q435 528 452 549Q454 552 478 581Q454 572 453 572Q445 568 420 555Q400 544 387 538Q380 535 376 537Q373 538 362 550Q355 543 490 659Q456 653 454 653Q434 650 429 663Q423 677 436 690Q442 696 447 700Q606 824 748 877Q766 884 949 938Q950 939 967 940Q956 926 932 911Q906 894 896 885Q908 882 928 890Q949 897 960 896Q948 880 919 860Q887 838 875 824Q896 827 897 827Q965 845 990 851Q989 850 916 788Q911 783 836 722Q860 727 918 747Q967 764 997 767Q976 750 975 749Q964 741 907 698Q866 667 840 647Q826 636 818 622Q807 602 765 521Q765 521 761 511Z"  horiz-adv-x="1026" vert-adv-y="2048"  />

      
      <glyph glyph-name="uni48" unicode="&#x48;" d="M217 1205Q183 1128 179 1024Q201 1081 217 1205M74 191Q66 151 64 145Q59 118 49 109Q46 106 42 89Q35 50 29 35Q25 60 26 61Q27 134 33 316Q33 305 36 397Q40 524 41 540Q42 567 21 573Q32 585 41 595Q20 604 4 611Q16 623 37 645Q11 642 8 641Q-13 639-13 639Q-27 641-30 650Q-34 661-24 669Q-22 672 6 689Q1 695 1 695Q-30 722 3 742Q5 743 35 759Q28 770 27 771Q17 789 32 798Q34 799 61 812Q69 869 71 879Q117 1189 125 1240Q130 1276 148 1348Q153 1368 164 1384Q173 1397 186 1395Q199 1393 205 1379Q209 1368 210 1350Q210 1348 207 1322Q205 1320 227 1362L244 1394Q250 1402 263 1401Q277 1401 279 1384Q280 1382 281 1348Q298 1384 300 1386Q311 1407 316 1415Q325 1428 339 1423Q353 1418 353 1404Q355 1344 354 1327Q350 1246 350 1246Q371 1314 373 1320Q394 1388 398 1400Q405 1420 416 1421Q430 1416 428 1394Q421 1329 414 1288Q403 1214 384 1099Q358 938 354 910Q354 910 354 900Q502 906 654 962Q683 1072 685 1077Q726 1219 773 1377Q783 1410 801 1415Q810 1403 811 1402Q815 1393 824 1392Q838 1391 842 1388Q846 1384 847 1372Q847 1370 847 1327Q864 1360 865 1362Q879 1388 881 1391Q901 1417 915 1383Q915 1383 918 1373Q929 1389 930 1391Q949 1421 950 1422Q961 1435 976 1430Q994 1423 994 1405Q994 1396 992 1386Q949 1153 951 1162Q943 1120 907 901Q907 900 905 882Q916 878 937 879Q960 881 971 878Q959 869 935 861Q909 852 898 845Q824 480 797 391Q703 80 649-48Q651-27 651-26Q654-10 663 39Q671 80 676 104Q676 105 676 138Q668 120 644 47Q626-6 608-35Q607-9 614 40Q621 91 620 116Q595 22 583-26Q574-20 574-11Q574-9 575-3Q575 2 575 4Q575 5 578 37Q580 59 580 67Q581 86 576 100Q569 78 552 26Q537-22 527-52Q521-33 525-4Q529 27 527 40Q519 20 505-32Q493-76 480-100Q475-67 480-9Q484 30 493 113Q502 194 506 236Q516 353 555 537Q574 629 573 624Q578 654 609 665Q621 670 662 690Q670 694 674 704Q670 703 656 701Q644 699 634 697Q659 712 672 720Q671 727 671 724Q657 722 656 721Q655 721 635 717Q639 722 673 740Q700 754 708 762Q692 760 691 760Q492 691 453 674Q446 672 345 638Q340 637 311 627Q296 547 167-48Q167-48 159-55Q161-32 169 112Q168 112 166 113Q164 113 163 114L138 41Q139 39 140 145Q140 244 140 246Q117 156 72-24Q71-24 70-24Q69-23 68-23Q77 76 78 84Q78 92 78 190Q77 191 74 191Z"  horiz-adv-x="1029" vert-adv-y="2048"  />

      
      <glyph glyph-name="uni49" unicode="&#x49;" d="M278 356Q271 328 257 275Q279 269 281 289Q282 295 285 355L278 356M426 1029Q417 1016 417 1015Q394 956 371 832Q356 752 357 707Q384 818 428 1016Q428 1016 426 1029M306 1294Q253 1285 248 1285Q229 1283 214 1289Q203 1292 203 1303Q202 1313 211 1320Q220 1325 236 1331Q331 1361 390 1379Q416 1387 423 1402Q433 1422 455 1408Q471 1399 477 1400Q482 1401 496 1418Q509 1433 524 1419Q525 1418 527 1414Q529 1411 531 1410Q542 1403 549 1413Q553 1418 557 1427Q563 1437 565 1440Q574 1455 588 1452Q600 1449 602 1433Q602 1432 605 1421Q600 1422 695 1433Q753 1440 782 1438Q747 1424 713 1411Q728 1406 748 1408Q775 1412 783 1412Q766 1397 765 1397Q754 1391 731 1380Q708 1368 696 1362Q695 1362 673 1345Q703 1341 759 1347Q814 1353 844 1349Q829 1340 801 1323L854 1323Q834 1309 834 1309Q707 1252 667 1234Q646 1226 642 1204Q634 1167 558 820Q485 482 467 419Q466 416 440 327Q448 320 474 324Q493 327 526 333Q563 339 578 341Q579 341 614 343Q602 333 579 322Q554 311 543 301Q566 304 596 308Q637 313 644 314Q630 298 600 283Q564 265 552 256Q566 257 589 259Q615 261 624 262Q608 245 576 229Q535 208 521 198Q543 199 588 206Q629 212 651 212Q628 199 627 199Q472 130 383 91Q366 84 361 70Q361 69 352 53Q351 57 348 66Q347 73 345 78Q326 73 325 73Q284 61 194 34Q109 8 63-6Q49-10 42-10Q23-10 16 4Q9 17 19 31Q19 32 32 46Q26 54 22 62Q77 98 71 94Q71 95 71 96Q70 97 70 98Q48 96 46 95Q43 95 34 93Q26 92 22 92Q4 90 0 105Q-5 118 12 127Q14 128 44 143Q51 170 52 171Q58 180 78 189Q94 197 167 231Q168 232 203 248Q213 350 214 357Q224 506 253 642Q256 656 353 1117Q354 1118 358 1146Q337 1146 337 1146Q324 1143 280 1134Q245 1126 223 1122Q206 1119 178 1120Q176 1120 156 1129Q169 1141 170 1142Q184 1153 183 1152Q186 1168 201 1178Q206 1181 215 1185Q225 1190 228 1192Q247 1202 255 1211Q231 1208 229 1208Q195 1205 184 1205Q178 1205 175 1212Q173 1219 177 1224Q188 1235 199 1241Q213 1247 269 1273Q272 1274 308 1289Q307 1292 306 1294Z"  horiz-adv-x="796" vert-adv-y="2048"  />

      
      <glyph glyph-name="uni4a" unicode="&#x4a;" d="M684 641Q680 643 678 644Q664 610 664 608Q606 452 532 343Q526 335 517 318Q517 317 508 296Q544 314 564 352Q629 472 667 583Q668 587 684 641M930 1445Q862 1407 859 1406Q864 1387 865 1384Q879 1395 880 1396Q893 1409 901 1406Q914 1401 914 1382L914 1361Q922 1361 922 1361Q940 1363 939 1352Q938 1346 930 1296Q949 1296 950 1296Q971 1298 980 1296Q956 1280 955 1280Q930 1265 925 1258Q920 1251 915 1223Q893 1088 849 933Q758 614 677 421Q624 295 546 166Q516 114 487 90Q454 63 431 52Q391 33 257-25Q242-32 226-30Q253-5 309 46Q252 35 216 38Q76 46 24 170Q-4 240-1 339Q5 487 67 645Q114 765 170 874Q176 886 195 917Q203 931 207 935Q218 943 225 942Q236 940 232 924Q230 917 219 887Q149 679 142 659Q126 610 122 561Q132 585 133 586Q233 834 240 852Q250 877 269 909Q270 911 296 945Q298 923 298 922Q297 917 293 901Q238 690 227 648Q227 648 228 636Q240 661 240 662Q247 679 272 746Q292 797 304 829Q313 852 327 878Q328 879 345 897Q358 889 349 874Q320 821 292 731Q284 708 242 563Q242 562 239 541Q247 548 261 575Q281 615 322 697Q362 777 382 819Q394 842 410 858Q408 844 408 843Q342 667 304 449Q304 452 286 365Q280 337 285 325Q310 333 335 360Q417 449 443 531Q481 651 601 919Q612 943 634 992Q657 1041 668 1065Q677 1086 697 1095Q737 1113 764 1136Q762 1136 697 1120Q702 1136 717 1144Q721 1146 730 1150Q738 1154 742 1156Q784 1181 788 1184Q775 1183 774 1183Q633 1138 541 1092Q490 1066 393 1041Q372 1036 363 1051Q365 1054 410 1085Q461 1120 459 1119Q441 1116 374 1095Q321 1078 283 1079Q293 1093 315 1109Q339 1125 348 1136Q327 1134 326 1133Q321 1132 312 1130Q302 1128 298 1127Q279 1123 273 1135Q272 1136 269 1160Q247 1160 245 1161Q233 1164 231 1174Q229 1183 238 1192Q243 1197 260 1204Q526 1326 569 1345Q609 1362 715 1393Q747 1403 908 1447Q909 1447 929 1451Q929 1450 930 1448Q930 1446 930 1445M846 1519Q773 1473 502 1373Q479 1364 469 1370Q477 1384 477 1384Q505 1405 522 1414Q650 1485 806 1514Q832 1519 841 1521Q841 1521 846 1519Z"  horiz-adv-x="923" vert-adv-y="2048"  />

      
      <glyph glyph-name="uni4b" unicode="&#x4b;" d="M184-12Q171 7 175 38Q179 79 177 90Q161 50 159 45Q154 36 145 37Q137 38 133 48Q130 57 131 73Q132 138 131 158Q122 133 122 132Q118 117 108 78Q99 44 94 24Q89 8 83-2Q76-12 66-11Q57-10 51 1Q51 2 46 22Q31 1 30 0Q23-7 13-5Q4-3 2 7Q-1 20 0 35Q13 155 17 181Q33 284 78 541Q114 751 190 1022Q205 1076 229 1162Q260 1276 267 1302Q274 1328 286 1345L281 1300Q277 1269 278 1253Q317 1345 339 1397Q341 1385 346 1353Q351 1364 362 1384Q365 1378 365 1378Q363 1368 359 1343Q356 1320 354 1308Q352 1290 357 1277Q368 1305 385 1348Q388 1339 387 1306Q387 1303 383 1259Q395 1285 396 1286Q400 1299 409 1329Q418 1356 423 1371Q424 1373 439 1403Q444 1380 438 1345Q431 1305 433 1288Q440 1307 452 1343Q464 1378 471 1397Q473 1391 473 1350L473 1301Q485 1321 485 1321Q494 1344 507 1384Q523 1429 529 1447Q535 1464 544 1475Q543 1454 542 1453Q531 1398 499 1243Q471 1111 455 1032Q454 1027 432 905Q429 903 501 977Q512 989 535 1013Q558 1038 570 1050Q599 1080 638 1118Q649 1129 711 1187Q721 1197 747 1220Q769 1241 782 1253Q789 1260 817 1287Q838 1307 852 1320Q898 1363 926 1388Q970 1428 1003 1448Q996 1433 995 1433Q994 1430 862 1278Q862 1277 842 1252Q851 1253 868 1266Q886 1281 958 1338Q1013 1382 1048 1409Q1074 1430 1092 1437Q1087 1427 1063 1400Q1066 1403 1032 1366Q1015 1348 1002 1334Q993 1324 974 1302Q951 1277 945 1270Q921 1243 914 1235Q891 1207 888 1197Q894 1199 927 1221Q929 1222 962 1246Q993 1269 999 1273Q1023 1291 1035 1298Q1037 1300 1069 1320Q1074 1317 1074 1316Q1074 1316 1072 1313Q1071 1312 1070 1310Q1068 1307 1066 1305Q1063 1302 1059 1297Q960 1191 961 1192Q956 1186 947 1176Q945 1174 942 1170Q942 1170 940 1163Q956 1168 956 1169Q972 1181 1001 1202Q1033 1225 1046 1234Q1058 1243 1071 1247Q1064 1235 1025 1195Q1018 1187 1001 1169Q985 1152 976 1143Q973 1140 922 1084Q940 1089 960 1104Q982 1121 991 1124Q993 1122 993 1122Q994 1121 992 1119Q990 1115 988 1113Q892 1012 702 814Q712 789 713 788Q781 668 800 636Q878 504 943 367Q940 371 998 254Q999 252 1014 220Q1000 230 990 238Q993 219 994 219Q999 206 1023 153Q1041 113 1051 88Q1063 61 1059 51Q1055 56 996 142Q950 209 931 233Q946 189 981 115Q1021 29 1035-7Q1022-1 1004 21Q1002 23 977 55Q978 53 952 87L945 66Q908 110 877 146Q878 135 909 62Q920 37 946-23Q949-29 986-110Q963-100 944-77Q940-73 907-33Q862 20 868 13Q870-8 871-12Q862-7 862-7Q767 107 666 271Q559 446 516 583Q552 618 624 690Q623 693 622 695Q609 691 609 690Q611 692 528 625Q515 615 505 611Q507 619 545 661Q548 665 590 707Q582 712 572 704Q549 683 500 639Q452 597 427 575Q374 527 353 512Q327 493 318 457Q296 365 223 71Q213 32 207 13Q200-9 184-12M222 1333Q220 1313 220 1312Q201 1194 133 962Q132 956 129 944Q125 933 124 927Q119 911 110 915Q101 918 100 931Q99 963 103 981Q131 1126 176 1235Q175 1233 217 1334Q218 1334 220 1334Q221 1333 222 1333Z"  horiz-adv-x="1060" vert-adv-y="2048"  />

      
      <glyph glyph-name="uni4c" unicode="&#x4c;" d="M27 105Q47 122 47 123Q48 126 45 144Q45 145 41 160Q40 160 37 160Q32 128 27 105M67 133Q87 143 89 147Q92 151 88 166Q72 161 70 157Q67 153 67 133M205 1113Q215 1188 213 1199Q200 1132 205 1113M224 1337Q232 1353 247 1395Q260 1429 273 1450Q270 1424 260 1351Q261 1350 264 1349Q279 1391 280 1395Q290 1421 297 1430Q303 1439 318 1439Q330 1440 333 1422Q333 1421 334 1408Q359 1402 360 1401Q370 1397 380 1399Q392 1403 396 1400Q400 1397 404 1383Q409 1364 410 1363Q426 1353 423 1322Q411 1204 405 1169Q402 1150 339 784Q338 779 341 771Q364 839 390 969Q419 1106 438 1167Q422 1053 421 1047Q413 997 312 499Q304 458 289 372Q288 371 285 336Q315 349 316 350Q520 456 624 493Q661 506 944 597Q951 599 962 597Q931 576 869 543Q804 507 774 488Q784 482 799 486Q853 499 889 508Q890 508 908 506Q903 501 849 466Q811 441 797 427Q880 449 906 456Q899 448 838 408Q786 375 773 363Q790 365 791 365Q809 370 965 422Q965 422 985 427Q971 412 970 412Q944 396 821 316Q730 257 668 226Q610 196 422 109Q307 56 132-23Q106-35 93-26Q105-7 106-6Q107-5 138 22Q149 31 141 46Q108 33 106 32Q30-5 39-1Q27-6 19 1Q9 10 22 23Q36 36 65 60Q87 78 93 89Q32 71 24 68Q23 67 7 45Q-1 62 0 88Q7 291 9 345Q16 475 34 580Q97 955 138 1191Q145 1228 173 1366Q177 1383 185 1404Q191 1420 208 1417Q222 1414 222 1398Q222 1406 222 1359Q222 1359 224 1337Z"  horiz-adv-x="1016" vert-adv-y="2048"  />

      
      <glyph glyph-name="uni4d" unicode="&#x4d;" d="M159 1011Q144 972 116 802Q89 633 92 601Q107 645 134 812Q161 980 159 1011M73 1298Q55 1361 54 1366Q45 1403 62 1404Q73 1405 79 1396Q81 1393 84 1387Q87 1381 88 1379Q89 1378 95 1368Q117 1386 136 1366Q146 1389 147 1390Q153 1400 164 1401Q175 1402 183 1393Q191 1385 198 1369Q204 1357 212 1338Q223 1313 226 1306Q231 1294 240 1288Q238 1303 237 1304Q224 1358 217 1384Q208 1415 223 1431Q225 1433 226 1455Q228 1474 240 1479Q257 1473 268 1441Q273 1426 283 1395Q293 1364 298 1349Q300 1343 330 1257Q341 1275 342 1277Q352 1291 363 1287Q375 1283 375 1267Q375 1223 374 1217Q362 1165 389 1099Q395 1083 486 837Q486 837 495 820Q510 840 518 850Q643 1009 658 1027Q680 1055 722 1095Q742 1115 749 1144Q764 1209 793 1328Q799 1351 805 1369Q806 1370 816 1384Q826 1378 835 1373Q840 1378 840 1378Q853 1403 851 1400Q855 1406 863 1404Q871 1402 871 1394Q871 1377 869 1348Q867 1328 868 1323Q883 1361 884 1364Q891 1379 901 1386Q911 1394 922 1390Q932 1386 934 1374Q935 1370 937 1335L937 1315Q952 1342 954 1345Q959 1352 966 1350Q977 1346 978 1339Q981 1321 980 1303Q973 1204 970 1171Q955 1046 937 916Q923 818 898 661Q891 616 879 544Q864 450 860 427Q850 366 789 109Q776 56 756-26Q755-28 746-60Q736-42 738-4Q740 20 744 72Q747 122 749 149Q751 170 747 196Q746 193 715 91Q682-15 680-19Q674 5 676 44Q678 88 675 107Q661 61 645 12Q640 29 641 56Q642 87 640 101Q636 85 630 61Q624 38 621 28Q616 27 616 27Q614 28 614 31Q612 56 612 59Q612 205 608 272Q599 252 598 251Q583 196 559 110Q525-14 520-32Q517-44 508-50Q522 82 523 90Q528 126 536 188Q546 259 549 286Q566 419 601 567Q605 582 620 601Q662 656 667 668Q668 671 689 696Q691 698 712 722Q708 725 708 725Q706 726 704 724Q580 606 565 590Q559 585 487 501Q489 495 493 478Q497 464 499 454Q488 459 476 472Q464 487 454 492Q460 477 470 451Q480 425 484 413Q483 412 480 410Q465 428 464 429Q424 497 387 563Q377 580 359 613Q339 648 331 663Q330 663 315 684Q298 552 296 540Q282 442 274 402Q266 358 245 266Q236 228 211 130Q185 27 172-2Q170 18 171 192Q161 170 161 168Q153 141 139 96Q124 43 118 24Q111-1 101-10Q98-1 96 34Q96 40 96 77L96 124Q86 111 81 85Q81 80 74 42Q68 7 67 4Q66 0 57-45Q47-20 46 18Q44 72 43 79Q34 65 31 36Q28 6 22-5Q12 1 11 24Q3 130 3 149Q-1 335 4 385Q18 530 29 602Q38 660 97 1005Q108 1069 113 1089Q118 1111 108 1134Q95 1165 63 1243Q57 1259 54 1270Q51 1282 54 1287Q57 1291 73 1298Z"  horiz-adv-x="1016" vert-adv-y="2048"  />

      
      <glyph glyph-name="uni4e" unicode="&#x4e;" d="M627-34Q615-1 624 120Q617 104 604 74Q590 43 583 28Q572 29 574 42Q576 64 583 127Q583 132 585 138Q599 188 552 224Q539 196 518 138Q496 80 483 52Q477 72 483 104Q501 214 510 262Q514 281 506 293Q428 405 338 585Q338 585 328 599Q317 567 304 514Q288 453 282 431Q244 308 233 270Q216 218 180 106Q177 96 127-60Q123-49 127 0Q131 42 130 54Q107-2 96-30Q87-28 88-16Q89-1 93 29Q96 59 97 73Q100 96 97 112Q86 87 75 41Q62-11 54-32Q42-12 44 24Q47 63 46 86Q36 63 26 17Q15-34 6-57Q0-28 0-27Q0 20 2 110Q2 115 3 128Q4 139 4 145Q3 295 45 526Q93 790 171 1114Q170 1112 177 1156Q179 1171 181 1174Q199 1206 210 1265Q214 1285 239 1284Q277 1283 293 1250Q294 1248 320 1204Q333 1228 334 1230Q341 1239 349 1237Q359 1235 361 1225Q364 1214 363 1197Q362 1175 358 1158Q353 1132 377 1102Q377 1101 394 1139Q408 1169 409 1171Q415 1179 428 1179Q443 1179 443 1162Q443 1135 440 1116Q433 1069 425 1039Q420 1019 431 998Q452 957 501 863Q546 775 571 728Q572 725 611 662Q621 687 622 687Q657 788 854 1346Q857 1354 861 1363Q872 1390 884 1385Q894 1381 895 1371Q895 1374 895 1354Q895 1346 893 1336Q891 1323 893 1318Q908 1358 910 1365Q931 1423 932 1426Q948 1463 985 1441Q995 1435 995 1420Q995 1398 994 1391Q994 1390 990 1365Q995 1367 1008 1394Q1024 1427 1037 1420Q1049 1412 1043 1384Q1044 1393 1027 1318Q1025 1308 1028 1299Q1038 1317 1039 1318Q1046 1333 1058 1330Q1072 1327 1069 1307Q1067 1288 1063 1272Q992 988 980 945Q873 542 823 369Q815 341 737 126Q726 97 680-25Q680-26 668-51Q666-42 675 35Q676 46 680 74Q684 98 685 113Q672 88 655 40Q637-12 627-34Z"  horiz-adv-x="1105" vert-adv-y="2048"  />

      
      <glyph glyph-name="uni4f" unicode="&#x4f;" d="M757 1121Q759 1122 761 1123Q764 1123 765 1124Q761 1189 742 1226Q724 1212 722 1207Q720 1201 727 1184Q740 1151 746 1138Q746 1137 757 1121M346 1097Q353 1104 420 1175Q464 1223 503 1248Q466 1243 420 1198Q375 1155 346 1097M431 70Q612 94 717 277Q711 273 698 258Q632 182 542 135Q535 131 431 70M296 604Q330 679 332 685Q349 718 376 763Q379 768 407 807Q408 809 410 808Q410 808 413 804Q400 782 400 780Q368 730 348 659Q305 508 344 315Q369 303 403 312Q446 324 483 351Q542 393 587 459Q649 552 679 679Q696 750 703 853Q710 949 699 1057Q690 1136 691 1149Q691 1150 685 1175Q657 1149 656 1148Q538 1025 540 1026Q415 907 322 705Q297 651 296 604M775 1481Q708 1437 650 1399Q649 1401 650 1399Q649 1401 650 1399L650 1398L650 1398L650 1398L651 1397L651 1397L651 1397L651 1397L651 1396L651 1396L651 1396L652 1396L652 1396L652 1395L652 1395L652 1395L652 1394L652 1394L652 1394L652 1394L653 1394Q653 1394 653 1394Q654 1391 653 1394L653 1393Q676 1403 723 1422Q719 1416 717 1405Q713 1392 712 1389Q711 1386 682 1360L703 1360Q695 1349 672 1327Q650 1306 639 1289Q637 1289 706 1321Q762 1347 773 1350Q763 1340 746 1325Q730 1310 723 1303Q723 1302 724 1301Q725 1299 726 1298Q732 1301 754 1313Q772 1322 784 1328Q783 1320 772 1310Q707 1250 712 1254Q711 1254 703 1230Q710 1234 771 1263Q772 1263 774 1259Q770 1255 750 1235Q803 1156 807 1149Q858 1062 857 1062Q854 1081 847 1114Q840 1153 837 1167Q850 1164 863 1142Q883 1109 907 1064Q914 1051 925 1029Q937 1003 942 993Q972 936 974 870Q976 800 967 755Q935 601 936 605Q868 379 769 250Q765 246 684 153Q636 96 631 90Q619 76 601 52Q578 23 571 14Q564 5 553 2Q559 13 570 34Q582 55 588 66L584 69Q554 53 554 53Q450-8 325-11Q230-13 153 32Q52 91 20 219Q-1 303 3 432Q3 425 1 471Q-1 491 1 496Q76 794 91 831Q174 1048 314 1204Q379 1277 447 1318Q455 1323 461 1328Q545 1397 663 1443Q680 1450 709 1462Q744 1476 756 1480Q756 1481 772 1485L775 1481Z"  horiz-adv-x="999" vert-adv-y="2048"  />

      
      <glyph glyph-name="uni50" unicode="&#x50;" d="M411 627Q382 628 354 613Q339 605 351 589Q391 615 411 627M439 1238Q540 1219 546 1218Q561 1215 594 1199Q624 1184 643 1183Q555 1243 440 1264Q440 1260 439 1238M263 1288Q234 1092 223 1017Q223 1017 224 1003Q237 1032 249 1081Q267 1158 295 1278Q295 1279 292 1287Q290 1287 279 1287Q270 1288 263 1288M393 888Q481 918 501 925Q507 927 514 933Q618 1009 638 1024Q690 1064 645 1112Q562 1202 434 1214Q399 938 393 888M183 66Q186 99 191 151Q177 121 157 58Q137-5 123-35Q121-30 123 23Q123 25 129 84Q133 124 135 145Q138 184 137 207Q133 198 53-60Q46-36 46 4Q47 59 45 76Q38 56 25 12Q15-27 5-48Q-7 2 2 108Q5 133 8 184Q11 235 13 261Q21 344 30 410Q35 449 54 562Q56 569 81 716Q56 716 55 716Q25 712 13 716Q63 739 86 751Q179 1170 206 1291Q156 1299 113 1305Q129 1314 164 1318Q197 1321 212 1332Q137 1338 91 1342Q114 1355 115 1355Q104 1353 168 1364Q170 1364 205 1372Q195 1378 175 1380Q130 1384 95 1388Q82 1390 84 1408Q133 1416 136 1417Q277 1430 412 1427Q556 1423 593 1418Q746 1395 810 1371Q920 1329 975 1255Q1056 1146 1024 1024Q1009 968 971 931Q928 889 898 869Q844 833 745 773Q725 761 683 738Q642 715 621 703Q501 630 364 565Q336 552 329 520Q304 412 276 320Q265 283 207 112Q196 80 183 66Z"  horiz-adv-x="1057" vert-adv-y="2048"  />

      
      <glyph glyph-name="uni51" unicode="&#x51;" d="M216 681Q253 737 248 779Q225 742 216 681M144 679Q146 679 150 678Q172 728 218 828Q264 928 286 978Q275 974 268 965Q223 905 196 833Q188 810 148 695Q148 695 144 679M475 1380Q467 1367 432 1310Q437 1306 446 1314Q461 1326 506 1362Q544 1393 566 1411Q567 1411 589 1421Q585 1401 585 1401Q566 1373 563 1365Q589 1378 590 1378Q630 1395 644 1398Q666 1405 674 1402Q680 1399 696 1379Q696 1378 709 1368Q816 1402 811 1402Q800 1394 778 1377Q759 1362 748 1354Q757 1343 757 1343Q751 1336 727 1317Q709 1302 702 1288Q702 1288 705 1278Q709 1279 717 1280Q725 1282 730 1282L730 1267Q789 1290 786 1288Q787 1286 788 1285Q768 1267 767 1266Q754 1255 754 1254Q749 1241 699 1201Q656 1167 644 1154Q551 1062 502 989Q487 965 429 891Q402 855 383 810Q318 654 297 508Q286 434 293 387Q301 337 333 308Q365 279 414 278Q504 275 584 354Q566 385 566 385Q468 542 456 561Q443 584 429 620Q424 635 427 642Q430 650 445 657Q456 663 459 671Q464 686 487 695Q486 724 510 732Q506 784 505 784Q525 794 544 777Q553 768 583 739Q592 730 622 700Q647 676 662 661Q663 661 681 646L681 668Q679 683 670 782Q664 851 654 895Q652 908 639 969Q630 1015 608 1044Q608 1045 599 1060Q611 1066 624 1052Q723 936 745 902Q746 901 761 881Q755 916 724 971Q721 977 675 1050Q695 1044 713 1028Q738 1006 748 998Q732 1043 676 1128Q692 1126 716 1107Q736 1091 754 1074Q752 1076 787 1041Q788 1041 823 1007Q823 1023 823 1024Q815 1047 793 1104Q787 1120 788 1129Q815 1101 816 1099Q908 970 948 912Q981 864 990 784Q996 721 987 648Q985 629 987 620Q1010 495 961 381Q961 381 958 371Q1176 104 1169 113Q1140 133 1085 179Q1030 225 1000 246Q1015 218 1050 167Q1087 115 1101 89Q1093 91 1069 113Q1063 118 1054 128Q1042 140 1039 143Q1033 149 1023 158Q1011 169 1007 172Q1004 175 992 187Q982 197 976 202Q975 204 939 237Q941 229 963 191Q961 193 984 154Q992 141 1008 114Q1012 108 1020 94Q1028 81 1032 74Q1055 34 1054 37Q1068 12 1071-6Q969 109 917 167Q918 157 942 109Q941 110 971 51Q992 12 999-3Q1020-45 1021-63L960 3Q962-12 975-38Q988-64 991-81Q983-75 972-65Q958-53 952-48Q951-44 970-100Q957-99 945-86Q934-76 779 82Q754 108 751 109Q746 111 735 128Q726 141 712 164Q695 191 689 201Q676 221 664 231Q669 212 670 211Q679 190 695 158Q715 116 721 104Q729 88 716 82Q706 94 686 125Q668 153 654 167Q660 153 675 118Q689 86 697 67Q654 45 652 44Q482-31 295 16Q236 31 193 49Q43 112 8 275Q-10 363 3 490Q10 559 33 677Q63 839 160 979Q310 1199 436 1345Q459 1371 475 1380M265 1198Q223 1121 181 1069Q146 1026 117 992Q109 982 102 976Q98 973 92 977Q86 980 88 985Q94 1000 100 1011Q164 1119 265 1198Z"  horiz-adv-x="1208" vert-adv-y="2048"  />

      
      <glyph glyph-name="uni52" unicode="&#x52;" d="M382 900Q416 905 491 936Q565 966 589 984Q561 983 488 953Q413 923 382 900M594 935Q548 932 421 883Q295 835 260 808Q407 832 594 935M215 25Q217 45 218 76Q206 50 200 37Q193 54 195 81Q196 100 197 127Q197 154 195 173Q183 142 169 88Q153 24 145 1Q135 9 135 31Q135 51 136 83Q137 124 137 135Q137 140 137 221Q126 190 126 189Q121 166 108 112Q97 63 90 35Q87 23 78 11Q82 122 96 289Q109 457 113 567Q62 313 35 180Q31 196 33 285Q33 275 39 385Q39 397 41 435Q42 466 43 485Q46 524 52 585Q58 648 64 685Q64 691 71 734Q76 765 78 787Q41 782 39 782Q37 781 0 776Q18 790 64 810Q97 824 89 855Q76 860 54 856Q27 851 17 852Q21 855 59 874Q71 879 79 881Q100 886 105 911Q125 1006 142 1072Q153 1119 184 1227Q189 1245 198 1260Q205 1270 215 1270Q228 1270 231 1253Q231 1251 231 1225Q254 1214 258 1207Q263 1201 262 1176Q261 1160 259 1133Q257 1100 256 1090Q255 1069 261 1052Q275 1130 278 1143Q283 1168 286 1178Q290 1191 297 1200Q305 1208 315 1206Q325 1203 328 1192Q328 1188 329 1160Q329 1147 333 1141Q343 1174 343 1176Q356 1211 360 1219Q366 1230 378 1229Q390 1228 394 1216Q409 1173 408 1158Q405 1128 400 1040Q400 1039 400 1005Q598 1067 695 1109Q686 1146 651 1166Q607 1191 577 1201Q424 1251 228 1295Q220 1296 150 1312Q178 1322 234 1322Q296 1323 319 1324Q314 1327 274 1337Q246 1344 231 1359Q242 1370 267 1370Q294 1369 305 1377Q283 1383 237 1396Q191 1408 165 1416Q185 1423 186 1423Q261 1423 276 1422Q287 1420 492 1395Q494 1395 521 1394Q502 1408 461 1424Q420 1441 401 1456Q422 1454 422 1454Q494 1431 555 1429Q598 1427 643 1413Q708 1395 786 1365Q901 1322 966 1241Q972 1234 984 1223Q1013 1197 1019 1150Q1025 1101 1001 1064Q945 979 870 934Q719 844 619 814Q618 813 595 803Q614 773 615 771Q868 392 881 372Q918 316 1035 126Q1049 104 1135-40Q1153-70 1162-90Q1146-79 1077-3Q1003 80 996 85Q1013 48 1049-18Q1087-88 1102-120Q1081-107 1053-78Q1015-39 1002-28Q1006-38 1052-122Q1056-129 1102-209Q1094-213 1084-201Q1076-192 984-79Q972-64 960-59Q966-72 980-97Q994-122 1001-135Q976-118 943-83Q904-41 889-28Q890-30 959-149Q940-140 939-139Q890-90 880-77Q682 174 627 249Q541 366 399 622Q398 624 371 671Q364 670 362 657Q331 414 312 339Q304 303 230 49Q230 48 219 24Q219 24 217 24Q216 25 215 25M929 414Q830 550 823 561Q808 584 743 697Q726 725 742 731Q755 736 770 716Q850 610 892 518Q895 512 936 418Q935 417 929 414Z"  horiz-adv-x="1167" vert-adv-y="2048"  />

      
      <glyph glyph-name="uni53" unicode="&#x53;" d="M787 1306Q777 1303 735 1297Q705 1293 688 1285Q714 1283 761 1284Q779 1284 787 1306M732 1238Q650 1227 614 1202Q686 1211 693 1211Q721 1212 732 1238M630 229Q619 219 450 146Q500 141 553 165Q607 190 630 229M850 609Q907 672 924 722Q936 757 927 797Q918 838 891 866Q902 836 902 835Q932 766 896 702Q893 696 850 609M286 43Q267 1 264-4Q258-15 247-13Q235-10 234 1Q234 19 236 73Q236 74 240 96Q222 81 221 80Q225 87 203 37Q196 22 185 22Q174 21 169 38Q169 38 162 56Q140-1 138-6Q130-26 126-32Q119-42 109-40Q99-39 95-28Q91-18 92-4Q92-10 102 64Q102 64 99 72Q89 54 79 22Q67-16 61-29Q48-15 47 7Q41 182 79 287Q133 436 191 530Q210 561 251 610Q258 619 283 633Q297 641 312 627Q323 617 318 600Q316 592 307 578Q305 574 279 531Q288 534 312 564Q307 557 338 603Q336 600 362 638Q392 680 389 676Q391 679 420 717Q423 707 415 688Q407 666 383 606Q364 555 352 524Q346 508 344 490Q468 629 459 621Q408 508 404 499Q377 437 356 372Q363 377 388 411Q392 416 419 455Q449 500 447 497Q468 526 478 541Q497 566 514 581Q432 394 405 316Q426 328 427 329Q558 419 660 555Q710 621 694 689Q693 693 692 707Q692 707 695 715Q707 707 714 687Q723 662 727 657Q764 710 715 750Q691 769 652 774Q548 789 474 789Q341 789 284 789Q190 789 110 810Q82 818 51 835Q16 854 0 899Q42 881 35 884Q37 891 37 891Q12 939 32 1002Q48 1051 84 1096Q168 1198 301 1263Q437 1329 612 1355Q730 1373 837 1368Q856 1367 873 1380Q948 1437 1026 1494Q1029 1496 1078 1527Q1083 1524 1084 1524Q1084 1522 1083 1521Q1071 1507 1047 1481Q1022 1455 1010 1441Q1010 1441 1008 1435Q1027 1440 1027 1441Q1039 1447 1061 1458Q1083 1470 1094 1476Q1095 1476 1122 1487Q1120 1481 1094 1451Q1092 1449 1060 1414Q1084 1420 1085 1420Q1096 1425 1121 1435Q1145 1445 1157 1450Q1159 1451 1188 1459Q1149 1417 1081 1342Q1086 1342 1146 1361Q1151 1363 1210 1384Q1203 1372 1203 1372Q1051 1227 993 1188Q995 1189 895 1108Q878 1095 869 1091Q857 1086 849 1094Q841 1101 844 1114Q844 1115 857 1147Q848 1143 825 1120Q807 1102 788 1104Q787 1106 779 1133Q756 1109 756 1109Q742 1095 733 1096Q724 1098 715 1118Q715 1118 710 1125Q698 1116 697 1116Q682 1111 677 1114Q667 1119 673 1136Q677 1144 687 1166Q688 1168 698 1189Q686 1190 686 1190Q649 1179 377 1068Q374 1067 321 1039Q352 1029 400 1035Q594 1059 700 1054Q806 1049 881 1005Q991 941 1015 811Q1035 704 983 603Q983 603 947 541Q939 528 938 519Q954 532 978 566Q1003 600 1019 614Q1017 598 1017 598Q997 550 990 539Q851 309 684 177Q592 104 499 62Q451 41 405 42Q396 43 286 43Z"  horiz-adv-x="1239" vert-adv-y="2048"  />

      
      <glyph glyph-name="uni54" unicode="&#x54;" d="M496 1231Q429 1226 334 1189Q237 1151 195 1114L496 1231M445 1015Q472 1026 516 1044Q567 1065 584 1071Q582 1079 582 1076Q530 1066 527 1066Q525 1066 275 1000Q250 994 195 979Q144 966 116 958Q102 955 87 955Q76 955 72 959Q68 964 67 982Q33 971 30 970Q13 966 6 980Q-1 994 14 1005Q17 1007 56 1033Q26 1028 25 1028Q8 1026 4 1039Q2 1047 7 1059Q8 1060 19 1071Q18 1078 18 1078Q-1 1097 0 1109Q0 1121 21 1134Q57 1158 93 1175Q349 1297 585 1347Q692 1370 956 1423Q987 1429 1034 1431Q1007 1420 944 1399Q885 1380 854 1365Q860 1365 957 1380Q1040 1393 1065 1394Q1047 1384 1046 1384Q1015 1372 947 1344Q882 1318 847 1304Q830 1297 813 1286Q846 1287 928 1297Q1003 1305 1048 1305Q1046 1303 971 1273Q902 1246 899 1244Q896 1245 1018 1249Q1027 1250 1139 1260Q1139 1254 1139 1254Q1138 1251 1137 1251Q1060 1226 940 1186Q773 1132 743 1122Q743 1122 737 1117Q722 1058 703 954Q680 834 670 788Q665 763 593 456Q588 468 589 486Q589 509 588 515Q578 489 578 488Q562 376 487 120Q479 90 455 14Q455 13 449 0Q443 18 445 41Q445 53 447 87Q449 138 449 130Q449 138 451 152Q453 166 453 173Q454 180 455 216Q457 264 457 263Q459 293 456 306Q442 268 441 266Q434 244 412 170Q393 111 382 75Q370 38 357 21Q357 21 364 122Q365 137 369 169Q373 201 374 217Q359 182 336 106Q313 31 298-7L298 62Q296 57 263-70Q254-69 254-56Q251 0 252 19Q259 208 263 255Q270 330 294 453Q323 607 409 945Q418 981 447 990Q451 991 500 1014Q490 1021 473 1017Q453 1013 445 1015M336 872Q348 866 343 848Q340 836 327 789Q318 753 311 730Q302 699 274 611Q273 610 261 586Q254 706 312 844Q318 860 336 872Z"  horiz-adv-x="1156" vert-adv-y="2048"  />

      
      <glyph glyph-name="uni55" unicode="&#x55;" d="M904 1428Q898 1389 886 1310Q875 1232 869 1192Q870 1192 871 1192Q873 1191 874 1191Q905 1282 921 1330Q925 1323 931 1313Q944 1342 969 1398Q971 1397 974 1397Q961 1311 960 1306Q951 1252 942 1211Q939 1195 931 1165Q923 1135 919 1120Q900 1035 900 1028Q921 1077 966 1200Q1006 1310 1033 1371Q1030 1342 1030 1341Q967 989 964 974Q940 812 838 494Q805 392 718 254Q686 203 674 180Q608 47 446 4Q340-25 251 23Q239 29 211 39Q121 71 71 156Q29 228 8 337Q-19 474 10 662Q56 961 209 1356Q217 1375 231 1405Q236 1415 244 1422Q249 1427 256 1424Q264 1421 265 1414Q265 1402 261 1386Q231 1238 221 1170Q235 1201 236 1203Q302 1358 304 1361Q305 1364 341 1433Q345 1416 329 1341Q327 1331 320 1299Q314 1273 311 1257Q321 1273 342 1320Q360 1360 376 1381Q370 1338 350 1268Q327 1187 321 1156Q332 1179 332 1180Q345 1213 410 1388Q419 1411 421 1414Q425 1420 436 1420Q442 1420 443 1410Q444 1402 440 1389Q407 1262 385 1178Q382 1168 376 1150Q371 1131 368 1123Q366 1115 368 1105Q391 1145 433 1252Q436 1260 459 1325Q474 1370 489 1397Q490 1397 492 1396Q495 1395 496 1395Q492 1369 491 1368Q408 1093 357 930Q304 757 279 566Q270 496 267 442Q265 394 292 342Q312 305 346 299Q380 293 411 322Q479 388 509 466Q556 585 587 682Q647 867 709 1022Q719 1046 854 1407Q862 1429 871 1443Q866 1403 850 1325Q834 1247 829 1207Q834 1218 835 1220Q839 1229 840 1233Q849 1265 864 1315Q884 1382 889 1398Q890 1402 899 1432Q903 1429 904 1428M423 383Q417 397 426 435Q476 634 571 754Q558 679 506 547Q453 414 423 383Z"  horiz-adv-x="1043" vert-adv-y="2048"  />

      
      </font>
</defs>
</svg>
